<svg id="Capa_1" data-name="Capa 1" xmlns="http://www.w3.org/2000/svg" viewBox="0 0 1000 600"><defs><style>.cls-1{fill:#e0e0e0;}.cls-2{fill:#f5f5f5;}.cls-3{fill:#fff;}.cls-4{fill:#ebebeb;}.cls-5{fill:#263238;}.cls-6{fill:#fafafa;}.cls-7{fill:#0f4c81;}.cls-8{opacity:0.2;}.cls-9{fill:#455a64;}.cls-10{fill:#ffbe9d;}.cls-11{opacity:0.6;}.cls-12{fill:#eb996e;}.cls-13{opacity:0.3;}</style></defs><rect class="cls-1" x="148.29" y="69.96" width="118.2" height="171.33"/><rect class="cls-2" x="142.37" y="69.96" width="118.2" height="171.33"/><rect class="cls-3" x="157.05" y="88.52" width="88.83" height="134.22"/><path class="cls-1" d="M245.89,222.74s0-.23,0-.66,0-1.07,0-1.9c0-1.69,0-4.15,0-7.36,0-6.43,0-15.81-.08-27.65,0-23.67-.09-57.18-.15-96.65l.3.3-88.83,0h0l.32-.32c0,50.63,0,97.32-.06,134.22l-.26-.26,64.66.14,17.87.06,4.69,0,1.62,0-1.57,0-4.64,0-17.81.06-64.82.14h-.25v-.26c0-36.9,0-83.59-.07-134.22V88.2h.33l88.83,0h.29v.29c-.06,39.55-.11,73.13-.14,96.84,0,11.82-.06,21.17-.08,27.59,0,3.18,0,5.63,0,7.3,0,.81,0,1.43,0,1.87S245.89,222.74,245.89,222.74Z"/><path class="cls-1" d="M260.9,70A19.85,19.85,0,0,1,258.8,73c-1.38,1.83-3.32,4.33-5.55,7s-4.3,5.09-5.84,6.79a22.08,22.08,0,0,1-2.6,2.66,21.11,21.11,0,0,1,2.25-3l5.69-6.91c2.16-2.62,4.11-5,5.69-6.91A22.89,22.89,0,0,1,260.9,70Z"/><path class="cls-3" d="M246.34,222.31a110.38,110.38,0,0,0,15.49,19.38"/><path class="cls-1" d="M261.83,241.69a18.57,18.57,0,0,1-2.7-2.46,86.14,86.14,0,0,1-5.84-6.59,83.49,83.49,0,0,1-5.15-7.16,17.94,17.94,0,0,1-1.8-3.17,25.09,25.09,0,0,1,2.18,2.92c1.3,1.83,3.13,4.33,5.27,7s4.18,5,5.67,6.69A22.9,22.9,0,0,1,261.83,241.69Z"/><path class="cls-3" d="M142.35,241.16l15.48-19.1"/><path class="cls-1" d="M157.83,222.06c.14.11-3.21,4.48-7.49,9.75s-7.85,9.46-8,9.35,3.22-4.48,7.49-9.75S157.7,222,157.83,222.06Z"/><path class="cls-1" d="M142.37,70c.14-.11,3.5,3.92,7.51,9s7.15,9.27,7,9.38-3.5-3.91-7.51-9S142.23,70.07,142.37,70Z"/><rect class="cls-1" x="188.46" y="115.77" width="29.74" height="84.45"/><polygon class="cls-1" points="425.85 45 425.85 120.03 318.09 120.03 314.21 45.52 425.85 45"/><rect class="cls-3" x="330.92" y="28.82" width="74.35" height="107.76" transform="translate(285.39 450.79) rotate(-90)"/><path class="cls-1" d="M422.48,120.38H313.7V45H422.48Zm-107.76-1H421.46V46H314.72Z"/><rect class="cls-3" x="325.88" y="54.76" width="84.42" height="55.87"/><path class="cls-1" d="M410.3,54.76l-.42,0h-1.2l-4.63,0-17.4.07L325.88,55l.24-.25c0,17.07,0,36,0,55.87h0l-.27-.26,84.42,0-.21.21c0-17,.08-30.94.11-40.65,0-4.85,0-8.64.05-11.24,0-1.28,0-2.27,0-3s0-1,0-1,0,.33,0,1,0,1.65,0,2.92c0,2.58,0,6.36,0,11.19,0,9.74.06,23.73.11,40.78v.22h-.21l-84.42.05h-.27v-.27h0c0-19.88,0-38.8,0-55.87v-.24h.24l60.93.12,17.34.06,4.59,0,1.17,0Z"/><path class="cls-1" d="M314.21,45.32a8.86,8.86,0,0,1,1.85,1.2c1.1.79,2.61,1.92,4.23,3.22s3,2.52,4,3.44a8.88,8.88,0,0,1,1.54,1.58c-.1.11-2.69-2-5.93-4.61A59.51,59.51,0,0,1,314.21,45.32Z"/><path class="cls-1" d="M422,45.52a51.82,51.82,0,0,1-5.67,4.83,51.56,51.56,0,0,1-6,4.41A54.55,54.55,0,0,1,416,49.93,53,53,0,0,1,422,45.52Z"/><path class="cls-3" d="M421.88,119.88l-12-9.74"/><path class="cls-1" d="M409.87,110.14A58,58,0,0,1,416,114.8a55.61,55.61,0,0,1,5.84,5.08,57.5,57.5,0,0,1-6.17-4.66A55.5,55.5,0,0,1,409.87,110.14Z"/><path class="cls-1" d="M314.21,119.87a51.36,51.36,0,0,1,5.61-4.78,52.6,52.6,0,0,1,5.94-4.36,50.09,50.09,0,0,1-5.61,4.78A51.13,51.13,0,0,1,314.21,119.87Z"/><rect class="cls-1" x="360.23" y="54.96" width="18.71" height="53.12" transform="translate(288.06 451.1) rotate(-90)"/><path class="cls-4" d="M864.9,381.22s-9.68-4.51-17.27,18.17-9.84,35.44-9.84,35.44-2.18,4.84-5.64,2.41-8.84-10-13.78-7.75c-5.12,2.33-6,8.56-3.65,17.17s6.74,27.68,7.13,29.41-.21,4.36-2.84,3.08-18.61-14.48-24.42-6.52,4.63,30.89,5.72,33.42.75,3.73-.41,4.57-6.1-4.11-10.8-7.68-10.78-6.88-13.75-2-1.43,23,20,49.66l10.76,11.7,15.63-3.24c33-8.95,44.92-22.74,45.38-28.43s-6.41-6.57-12.31-6.44-12.81,1.23-13.25-.13,0-2.53,2.35-3.94,24.29-13.84,24.26-23.7-20.73-8.54-23.6-9.05-1.8-3-.49-4.17,16.09-14,23-19.61,9.9-11.16,7.13-16.05c-2.68-4.71-11.48-1.75-15.71-1.81s-3.15-5.26-3.15-5.26,5.67-11.66,12.84-34.47-3.58-24.85-3.58-24.85"/><path class="cls-1" d="M804.07,565.49c5.33-16.73,15.31-46.32,23.75-71.76s16-48.47,21.47-65.18l6.4-19.79c.75-2.32,1.34-4.13,1.74-5.38.2-.59.35-1.06.47-1.39a4.21,4.21,0,0,1,.17-.47,4.77,4.77,0,0,1-.13.48c-.1.34-.24.81-.41,1.41-.39,1.26-.95,3.08-1.66,5.41-1.44,4.7-3.58,11.48-6.25,19.84-5.33,16.74-12.9,39.79-21.33,65.23s-18.47,55-23.89,71.71"/><path class="cls-1" d="M825.47,440.37a5.22,5.22,0,0,1,.55,1c.34.66.79,1.63,1.33,2.83,1.09,2.41,2.51,5.77,4,9.51l3.79,9.58c.47,1.15.86,2.12,1.17,2.89a5.24,5.24,0,0,1,.39,1.09,5.53,5.53,0,0,1-.56-1c-.33-.66-.78-1.63-1.32-2.83-1.06-2.42-2.44-5.8-3.93-9.54L827,444.35l-1.18-2.89A4.77,4.77,0,0,1,825.47,440.37Z"/><path class="cls-1" d="M838.2,467.34c-.06-.12,6.74-3.35,15.19-7.21s15.34-6.88,15.39-6.76-6.74,3.35-15.19,7.21S838.25,467.46,838.2,467.34Z"/><path class="cls-1" d="M823.48,505.82a6,6,0,0,1,1.15-.23l3.16-.46c2.66-.39,6.33-.95,10.37-1.71s7.66-1.57,10.28-2.18l3.11-.71a5.36,5.36,0,0,1,1.16-.21,6,6,0,0,1-1.11.39c-.72.22-1.77.53-3.07.87-2.61.7-6.23,1.57-10.28,2.32s-7.74,1.28-10.42,1.58c-1.34.15-2.43.25-3.18.31A5,5,0,0,1,823.48,505.82Z"/><path class="cls-1" d="M806.6,484a5.14,5.14,0,0,1,.75.79c.51.62,1.14,1.37,1.89,2.26,1.58,1.93,3.74,4.6,6.1,7.58s4.47,5.69,6,7.66l1.77,2.36a4.72,4.72,0,0,1,.6.91,4.58,4.58,0,0,1-.75-.79l-1.89-2.26c-1.58-1.92-3.74-4.6-6.1-7.58s-4.47-5.68-6-7.66l-1.77-2.36A4.1,4.1,0,0,1,806.6,484Z"/><path class="cls-1" d="M789.29,516.29a6.87,6.87,0,0,1,1,1c.63.76,1.45,1.73,2.43,2.89,2,2.45,4.84,5.86,7.9,9.65s5.81,7.23,7.78,9.74l2.31,3a7.69,7.69,0,0,1,.8,1.14,7.63,7.63,0,0,1-1-1c-.63-.76-1.45-1.73-2.43-2.89-2-2.46-4.84-5.87-7.9-9.65s-5.81-7.23-7.78-9.74l-2.31-3A7.38,7.38,0,0,1,789.29,516.29Z"/><path class="cls-1" d="M811.11,542.9a8.21,8.21,0,0,1,1.45-.33l4-.73c3.36-.61,8-1.49,13.09-2.59s9.68-2.22,13-3l3.93-1a8,8,0,0,1,1.45-.3,9.63,9.63,0,0,1-1.4.49c-.92.28-2.24.68-3.89,1.13-3.29.92-7.87,2.1-13,3.2s-9.75,1.93-13.13,2.46c-1.69.26-3.06.46-4,.57A9.26,9.26,0,0,1,811.11,542.9Z"/><path class="cls-5" d="M893.7,565c0,.18-177,.33-395.33.33S103,565.21,103,565s177-.34,395.36-.34S893.7,564.84,893.7,565Z"/><polygon class="cls-1" points="646.67 563.82 713.81 563.82 682.51 294.1 646.67 563.82"/><polygon class="cls-6" points="316.37 294.1 272.67 567 645.61 571.86 682.51 294.1 316.37 294.1"/><polygon class="cls-4" points="665.9 419.12 296.35 419.12 304.4 368.86 672.58 368.86 665.9 419.12"/><path class="cls-5" d="M665.93,419.15H296.31v0l8.05-50.29H672.61v0Zm-369.54-.06H665.87l6.67-50.19H304.43Z"/><polygon class="cls-7" points="316.37 294.1 304.4 368.86 672.58 368.86 682.51 294.1 316.37 294.1"/><path class="cls-5" d="M316.37,294.1l366.14-.31h.35l-.05.35c-10.79,81.31-23,173.52-36,270.92l0,.29h-4.49L273,565.29h-.33l.06-.32c26.43-164,43.29-268.63,43.65-270.87-.35,2.24-17,106.88-43.11,271l-.27-.32,369.33-.06h4.19l-.33.29c13-97.39,25.22-189.6,36-270.91l.3.34Z"/><path class="cls-5" d="M672.58,368.86c0,.19-82.43.34-184.08.34s-184.1-.15-184.1-.34,82.41-.33,184.1-.33S672.58,368.68,672.58,368.86Z"/><path class="cls-5" d="M665.9,419.12c0,.19-82.89.34-185.12.34s-185.13-.15-185.13-.34,82.87-.34,185.13-.34S665.9,418.93,665.9,419.12Z"/><path class="cls-5" d="M658.38,465.36c0,.18-82.89.33-185.12.33s-185.13-.15-185.13-.33S371,465,473.26,465,658.38,465.17,658.38,465.36Z"/><path class="cls-5" d="M650.86,511.6c0,.18-82.89.33-185.11.33s-185.14-.15-185.14-.33,82.87-.34,185.14-.34S650.86,511.41,650.86,511.6Z"/><path class="cls-5" d="M325,565.42c-.19,0,6.58-44,15.11-98.32s15.6-98.27,15.78-98.24-6.58,44.05-15.12,98.34S325.21,565.45,325,565.42Z"/><path class="cls-5" d="M382,565.42c-.18,0,6.59-44,15.12-98.32s15.6-98.27,15.78-98.24-6.58,44.05-15.12,98.34S382.19,565.45,382,565.42Z"/><path class="cls-5" d="M435,563.46c-.18,0,6.52-43.62,15-97.35s15.44-97.28,15.63-97.25-6.52,43.61-15,97.36S435.13,563.49,435,563.46Z"/><path class="cls-5" d="M487.34,565c-.18,0,6.57-44,15.08-98.12s15.57-98.06,15.75-98-6.57,44-15.08,98.13S487.52,565,487.34,565Z"/><path class="cls-5" d="M540,565c-.19,0,6.57-44,15.08-98.12s15.56-98.06,15.75-98-6.57,44-15.09,98.13S540.16,565,540,565Z"/><path class="cls-5" d="M592.57,565.3c-.19,0,6.58-44,15.1-98.27s15.59-98.2,15.77-98.17-6.58,44-15.11,98.28S592.75,565.33,592.57,565.3Z"/><g class="cls-8"><path d="M559.45,372.38c6.34-2.81,10.3-9.42,11.95-16.16s1.38-13.77,1.61-20.71,1.07-14.1,4.62-20.06c2.1-3.53,5-6.46,7.38-9.84s4.06-7.51,3.2-11.52l-39.66.2Z"/></g><path class="cls-5" d="M395,422.84a2.09,2.09,0,0,1-.39.46l-1.19,1.25c-1.05,1.06-2.58,2.58-4.5,4.44-3.85,3.72-9.24,8.76-15.36,14.16s-11.79,10.13-15.95,13.48c-2.09,1.68-3.79,3-5,3.92l-1.38,1c-.32.23-.49.34-.51.32a2.69,2.69,0,0,1,.43-.43l1.3-1.13,4.83-4.08c4.09-3.44,9.71-8.22,15.82-13.61s11.55-10.38,15.47-14l4.65-4.29,1.28-1.15C394.78,423,394.94,422.82,395,422.84Z"/><path class="cls-5" d="M392.05,462.43a12.82,12.82,0,0,1-1.54-1.52l-4-4.3c-3.48-3.7-8.14-8.67-13.29-14.17l-13.42-14.05-4.07-4.26a13.4,13.4,0,0,1-1.43-1.63,12.67,12.67,0,0,1,1.62,1.44c1,1,2.45,2.36,4.22,4.11,3.53,3.51,8.35,8.41,13.57,13.93s9.84,10.59,13.15,14.31c1.65,1.87,3,3.38,3.87,4.44A14.83,14.83,0,0,1,392.05,462.43Z"/><path class="cls-7" d="M405.81,434.68s.12-.34.4-1a15.91,15.91,0,0,1,1.55-2.73,19.73,19.73,0,0,1,9.55-7.12,19.11,19.11,0,0,1,4-1,18.77,18.77,0,0,1,4.58-.13,22.52,22.52,0,0,1,9.79,3.34,26,26,0,0,1,8.44,8.37,21.85,21.85,0,0,1,3.52,12.8,14.79,14.79,0,0,1-2.2,6.87,17.54,17.54,0,0,1-5.31,5.37,25.69,25.69,0,0,1-15.31,4,26.22,26.22,0,0,1-8.25-1.8,19.62,19.62,0,0,1-7.22-4.89,16.54,16.54,0,0,1-2.48-3.74,16.12,16.12,0,0,1-1.32-4.37,20.79,20.79,0,0,1,.8-9.18A25.25,25.25,0,0,1,418.32,425a22,22,0,0,1,19.39-.9,20.35,20.35,0,0,1,8.12,6.22,19.54,19.54,0,0,1,3.84,9.66A18.92,18.92,0,0,1,448,450.36a17.79,17.79,0,0,1-3.06,4.43,20.6,20.6,0,0,1-4.26,3.34A26.07,26.07,0,0,1,420,460.07a23.56,23.56,0,0,1-9-5.2,16.62,16.62,0,0,1-5-8.9,14.69,14.69,0,0,1,1.36-9.93,12.37,12.37,0,0,1,3.26-3.82,15.4,15.4,0,0,1,4.39-2.31,27.65,27.65,0,0,1,9.59-1.27,36.57,36.57,0,0,1,9.35,1.31A19.88,19.88,0,0,1,442,434.3a14.71,14.71,0,0,1,4.37,7.82,17,17,0,0,1-.51,8.69,18.09,18.09,0,0,1-4.49,7.15,22.19,22.19,0,0,1-14.45,6.29,19.26,19.26,0,0,1-7.47-1.09,15,15,0,0,1-6-4,16.42,16.42,0,0,1-3.5-5.93,17.5,17.5,0,0,1-.94-6.47,17.09,17.09,0,0,1,4.57-10.87,20.37,20.37,0,0,1,8.67-5.61,19.87,19.87,0,0,1,8.66-.83A23.36,23.36,0,0,1,442,433.94a22.13,22.13,0,0,1,2.39,2c.49.5.73.77.73.77l-.78-.72a26.89,26.89,0,0,0-2.42-2,23.45,23.45,0,0,0-11-4.32,19.77,19.77,0,0,0-17,6.43,16.66,16.66,0,0,0-4.42,10.63,17.05,17.05,0,0,0,.94,6.31,15.88,15.88,0,0,0,3.42,5.76,14.58,14.58,0,0,0,5.85,3.84,19.23,19.23,0,0,0,7.28,1A21.66,21.66,0,0,0,441,457.57a17.43,17.43,0,0,0,4.34-6.93,16.37,16.37,0,0,0,.48-8.4,14.05,14.05,0,0,0-4.2-7.49,19.14,19.14,0,0,0-7.88-4.2,36,36,0,0,0-9.19-1.28,27.13,27.13,0,0,0-9.37,1.24,12.76,12.76,0,0,0-7.29,5.84,14.05,14.05,0,0,0-1.29,9.49,15.94,15.94,0,0,0,4.84,8.54,22.85,22.85,0,0,0,8.76,5.05,25.41,25.41,0,0,0,20.18-1.88,19.86,19.86,0,0,0,4.11-3.23,17,17,0,0,0,2.95-4.25A18.31,18.31,0,0,0,449,440a18.88,18.88,0,0,0-3.71-9.33,19.58,19.58,0,0,0-7.85-6,21.41,21.41,0,0,0-18.83.86A24.67,24.67,0,0,0,407,439.64a20.2,20.2,0,0,0-.79,8.91,15.57,15.57,0,0,0,1.26,4.2,15.9,15.9,0,0,0,2.38,3.61,19.27,19.27,0,0,0,7,4.75,25.93,25.93,0,0,0,8.07,1.77,25.18,25.18,0,0,0,15-3.85,15.48,15.48,0,0,0,7.32-11.85,21.38,21.38,0,0,0-3.41-12.53,25.83,25.83,0,0,0-8.27-8.28A22.43,22.43,0,0,0,425.9,423a19.27,19.27,0,0,0-4.51.09A20.38,20.38,0,0,0,407.87,431a16.84,16.84,0,0,0-1.6,2.68C406,434.36,405.81,434.68,405.81,434.68Z"/><path class="cls-5" d="M440.71,470.26c.12.14-10.11,8.87-22.84,19.51s-23.14,19.14-23.26,19,10.1-8.87,22.83-19.51S440.59,470.11,440.71,470.26Z"/><path class="cls-5" d="M442.93,507.62a13.32,13.32,0,0,1-1.71-1.22l-4.53-3.54c-3.8-3-9-7.21-14.76-11.87s-10.92-8.92-14.65-12l-4.38-3.7a15.22,15.22,0,0,1-1.56-1.43,11.83,11.83,0,0,1,1.72,1.23l4.53,3.53c3.8,3,9,7.21,14.76,11.88s10.92,8.91,14.64,12l4.39,3.7A13.11,13.11,0,0,1,442.93,507.62Z"/><path class="cls-5" d="M548.26,470.75c.12.15-9.66,7.63-21.83,16.71s-22.13,16.33-22.24,16.18S513.86,496,526,486.93,548.15,470.6,548.26,470.75Z"/><path class="cls-5" d="M552.06,502.45c-.1.16-10.48-6.28-23.18-14.37S506,473.29,506.06,473.13s10.48,6.28,23.18,14.38S552.16,502.3,552.06,502.45Z"/><path class="cls-7" d="M442.38,565c-.13-.13,10-10.77,22.67-23.75s23-23.42,23.15-23.29-10,10.76-22.67,23.76S442.51,565.16,442.38,565Z"/><path class="cls-7" d="M485.3,565s-.16-.14-.42-.44l-1.09-1.35-4-5c-3.37-4.2-8.14-9.9-13.66-16s-10.77-11.34-14.64-15.08l-4.59-4.42-1.24-1.21c-.28-.29-.42-.44-.4-.46a2.34,2.34,0,0,1,.49.36l1.33,1.11c1.14,1,2.76,2.44,4.74,4.27,3.95,3.66,9.26,8.9,14.81,15s10.25,11.85,13.53,16.12c1.64,2.14,2.94,3.89,3.81,5.12l1,1.43A2.2,2.2,0,0,1,485.3,565Z"/><path class="cls-4" d="M379.83,510.83s.41,31.65-7.58,50.61l-48.69-8.31s14.67-30,10.67-46.66Z"/><path class="cls-7" d="M379.82,509.64S373.71,548.46,370,560l-48.41-9.55s10-37.57,9.82-48Z"/><path class="cls-3" d="M336.32,519.87c0,.18,7.19,1.85,16.14,3.73s16.24,3.27,16.28,3.09-7.19-1.85-16.14-3.73S336.36,519.69,336.32,519.87Z"/><path class="cls-3" d="M335.08,528.1c0,.18,7.19,1.85,16.14,3.73s16.25,3.27,16.28,3.09-7.19-1.84-16.14-3.73S335.12,527.92,335.08,528.1Z"/><path class="cls-3" d="M342.17,537.41a11.49,11.49,0,0,0,2.66.8c1.66.41,4,.93,6.51,1.47s4.86,1,6.55,1.28a11.7,11.7,0,0,0,2.75.34,11.85,11.85,0,0,0-2.66-.79c-1.66-.42-4-.94-6.51-1.47s-4.86-1-6.55-1.28A11.46,11.46,0,0,0,342.17,537.41Z"/><path class="cls-4" d="M610.16,421.93s5,30.85-.06,50.53l-48.76-1s10-31.42,3.66-47.12Z"/><path class="cls-9" d="M610,420.78s-.33,38.79-2.3,50.63L559,469.11s4.27-38.14,2.63-48.33Z"/><path class="cls-3" d="M568.49,438c0,.18,7.33.34,16.36.35s16.36-.12,16.36-.29-7.33-.34-16.36-.36S568.49,437.86,568.49,438Z"/><path class="cls-3" d="M569,446.24c0,.18,7.32.34,16.35.36s16.36-.12,16.36-.3-7.32-.34-16.36-.35S569,446.07,569,446.24Z"/><path class="cls-3" d="M577.69,453.82a11.53,11.53,0,0,0,2.73.23c1.68.06,4,.1,6.58.11s4.91,0,6.6-.09a11.44,11.44,0,0,0,2.73-.22,11.9,11.9,0,0,0-2.73-.24c-1.69-.06-4-.1-6.59-.1s-4.91,0-6.59.08A11.53,11.53,0,0,0,577.69,453.82Z"/><path class="cls-5" d="M620.55,333c-9.1,0-18.26-5.7-23.08-14.68a43.8,43.8,0,0,1-4.11-29.13c2.67-12.91,11.2-23.44,21.73-26.81,9-2.88,25-1.25,32.51,11.35a38.31,38.31,0,0,1,5.23,20.39,3.87,3.87,0,0,1-7.72-.51A30.9,30.9,0,0,0,641,277.69c-5.83-9.73-18.59-9.54-23.52-8-9,2.88-14.79,12.64-16.53,21a36,36,0,0,0,3.37,23.91c3.8,7.09,11.49,11.5,18.31,10.45a3.86,3.86,0,1,1,1.17,7.64A21.71,21.71,0,0,1,620.55,333Z"/><path class="cls-5" d="M371,333c-9.1,0-18.26-5.7-23.07-14.68a43.73,43.73,0,0,1-4.12-29.13c2.25-10.87,9.88-23.39,21.84-26.85a28.51,28.51,0,0,1,17.55.9l-2.78,7.21a20.78,20.78,0,0,0-12.62-.68c-8.87,2.57-14.64,12.39-16.42,21a35.92,35.92,0,0,0,3.36,23.91c3.81,7.1,11.51,11.5,18.31,10.45l1.17,7.64A21.71,21.71,0,0,1,371,333Z"/><polygon class="cls-7" points="617.31 294.31 613.76 313.78 666.08 313.78 670.73 294.5 617.31 294.31"/><path class="cls-5" d="M384.21,329.92a8.32,8.32,0,1,1-8.31-8.32A8.32,8.32,0,0,1,384.21,329.92Z"/><path class="cls-5" d="M633.54,329.92a8.32,8.32,0,1,1-8.32-8.32A8.33,8.33,0,0,1,633.54,329.92Z"/><polygon class="cls-10" points="496.22 168.82 482.54 220.73 435.31 225.79 435.31 234.18 501.68 236.51 514.15 178.28 496.22 168.82"/><path class="cls-5" d="M516.15,237.88s-73.8-3.51-94.82,12.94-10.92,43.28-10.92,43.28l118.78-.32,10.48-60.19Z"/><path class="cls-9" d="M528.69,277.61a7.58,7.58,0,0,1-1.06-.08c-.69-.07-1.72-.18-3-.35-2.62-.33-6.42-.86-11.08-1.65a316.78,316.78,0,0,1-36-8.33c-6.93-2.05-13.48-4.12-19.54-5.62a85.54,85.54,0,0,0-16.32-2.6,49.08,49.08,0,0,0-11.12.63c-1.31.17-2.29.5-3,.61a7.28,7.28,0,0,1-1.05.2,4.85,4.85,0,0,1,1-.33,29.59,29.59,0,0,1,3-.73,46.34,46.34,0,0,1,11.19-.85A83.29,83.29,0,0,1,458.11,261c6.09,1.47,12.67,3.53,19.58,5.58a353.32,353.32,0,0,0,35.91,8.5c4.65.85,8.43,1.46,11,1.86l3,.48A5.14,5.14,0,0,1,528.69,277.61Z"/><path class="cls-9" d="M460.1,261.23c-.15.16-2.62-2.52-6.54-4.54s-7.5-2.58-7.46-2.79a6.54,6.54,0,0,1,2.37.23,21.67,21.67,0,0,1,5.4,2,21.1,21.1,0,0,1,4.69,3.33A6.43,6.43,0,0,1,460.1,261.23Z"/><path class="cls-7" d="M524,398.3l1,31-6.29,24.77a3.18,3.18,0,0,0,2.52,3.91h0a3.17,3.17,0,0,0,2.78-.85c4.7-4.58,21.88-21.54,21.68-23.8-.23-2.63,1.13-32.8,1.13-32.8Z"/><g class="cls-11"><path class="cls-3" d="M521.17,458l24.44-26.75,0,1.32a4.78,4.78,0,0,1-1.11,3.11c-1.95,2.33-7.47,8.66-20.48,21.47a3.15,3.15,0,0,1-2.87.85Z"/></g><g class="cls-11"><path class="cls-3" d="M539.15,421.3a1.93,1.93,0,0,0-.5,2.52,1.85,1.85,0,0,0,2.49.52,2,2,0,0,0,.52-2.67,1.92,1.92,0,0,0-2.65-.26"/></g><path class="cls-5" d="M528.14,444.37c-.18.09-.89-1.53-2.75-2.39s-3.54-.46-3.58-.65.37-.32,1.09-.43a5.08,5.08,0,0,1,4.89,2.35C528.16,443.89,528.21,444.35,528.14,444.37Z"/><path class="cls-5" d="M526,448.55c-.14.14-1.15-.86-2.76-1.31s-3-.17-3-.36,1.39-.83,3.22-.29S526.12,448.47,526,448.55Z"/><path class="cls-5" d="M532.2,439c-.14.15-1.68-1.4-4.12-2.31s-4.61-.82-4.62-1,2.25-.62,4.86.39S532.35,438.92,532.2,439Z"/><path class="cls-5" d="M532.69,429.55c-.08.19-1.8-.51-4-.57s-4,.49-4.06.3,1.69-1.07,4.09-1S532.78,429.41,532.69,429.55Z"/><path class="cls-5" d="M532.63,420.44c-.1.18-1.83-.84-4.19-.71s-4,1.24-4.1,1.07.28-.46,1-.88a7,7,0,0,1,6.23-.27C532.3,420,532.67,420.37,532.63,420.44Z"/><path class="cls-5" d="M528.48,418a2.66,2.66,0,0,1-.05-1.17,8.18,8.18,0,0,1,.9-3.08,3.61,3.61,0,0,1,1.54-1.74,1.27,1.27,0,0,1,1.44.27,2.09,2.09,0,0,1,.51,1.4,4.49,4.49,0,0,1-3.9,4.19,5.23,5.23,0,0,1-5.15-2.68,1.78,1.78,0,0,1-.1-1.5A1.25,1.25,0,0,1,525,413a4.47,4.47,0,0,1,2,1,8.92,8.92,0,0,1,2.14,2.4,3,3,0,0,1,.49,1.06,14.92,14.92,0,0,0-2.92-3.07,4.18,4.18,0,0,0-1.81-.87.68.68,0,0,0-.72.37,1.27,1.27,0,0,0,.13,1,4.62,4.62,0,0,0,4.49,2.27,3.9,3.9,0,0,0,3.36-3.51,1.56,1.56,0,0,0-.31-1,.7.7,0,0,0-.8-.16,3.21,3.21,0,0,0-1.32,1.45A12.12,12.12,0,0,0,528.48,418Z"/><path class="cls-5" d="M539.67,233.59s-31.91,60.33-32.35,70.82,0,107.55,0,107.55h49.4c1.31,0,8.69-43.72,7.19-53.77S557.08,294,557.08,294H585.5s7.79-8.33,7.51-18.91c-.16-5.83-4-17.77-7.77-24.09-2.43-4.06-18-25.31-18-25.31Z"/><path class="cls-9" d="M537.53,237.66a1.11,1.11,0,0,1-.14.35l-.46,1-1.86,3.76c-.83,1.64-1.83,3.63-3,5.93l-1.86,3.7q-.93,2-2,4.21l-9.63,20.74-5.71,12.23c-1,2.12-2,4.28-3,6.47a35.2,35.2,0,0,0-2.2,6.93,38.79,38.79,0,0,0-.75,7.25c-.09,2.42-.13,4.8-.17,7.14-.07,4.68-.09,9.19-.08,13.5,0,8.6.1,16.35.19,22.86s.18,11.72.23,15.41c0,1.78,0,3.19,0,4.19v1.09a2.79,2.79,0,0,1,0,.38s0-.13-.05-.37,0-.64-.06-1.09c-.05-1-.1-2.41-.18-4.19-.13-3.64-.29-8.9-.45-15.41s-.28-14.26-.33-22.87c0-4.31,0-8.83,0-13.51,0-2.35.08-4.73.16-7.15a38.58,38.58,0,0,1,.77-7.36,35.71,35.71,0,0,1,2.23-7.07q1.55-3.28,3-6.48l5.74-12.22,9.77-20.68c.69-1.47,1.36-2.87,2-4.19l1.9-3.68c1.2-2.28,2.23-4.25,3.08-5.88l2-3.7c.21-.39.39-.7.52-1S537.52,237.66,537.53,237.66Z"/><path class="cls-9" d="M527.2,258.22c-.18,0-1.25-3.35-2.57-7.54s-2.37-7.59-2.19-7.65,1.52,3.25,2.83,7.45S527.38,258.17,527.2,258.22Z"/><path class="cls-9" d="M564,356.33a3,3,0,0,1-.14-.68c-.07-.53-.16-1.18-.28-2-.22-1.82-.53-4.28-.9-7.28-.7-6.25-1.66-14.71-2.72-24.06s-1.92-17.92-2.44-24.09c-.25-3-.46-5.49-.61-7.31-.06-.81-.1-1.47-.13-2a2.92,2.92,0,0,1,0-.7,2.55,2.55,0,0,1,.14.69c.07.53.15,1.18.26,2,.2,1.82.48,4.29.82,7.29.69,6.25,1.61,14.71,2.64,24.07s1.87,17.82,2.52,24.07c.29,3,.52,5.49.69,7.31.06.8.12,1.46.16,2A2.49,2.49,0,0,1,564,356.33Z"/><path class="cls-5" d="M551.46,72c-.76-5.09,3.66-10.11,8.77-10.72s10.23,2.64,12.59,7.22,2.19,10.18.38,15c-1.23,3.26-3.67,6.57-7.14,6.82s-6.12-2.39-8.42-4.82"/><path class="cls-5" d="M515.19,97.52c-10.27-22.59,14.16-33.93,27.48-30.17,12.53,3.54,17.87,9.77,19.93,18.15s2,17.46-1.32,25.44c-1.62,3.94-4.54,7.93-8.76,8.43"/><path class="cls-10" d="M550.66,79.91a4.26,4.26,0,0,1,3.81,4.32h0l-2.41,57.49c-.09,6.78-10,10.62-17.28,10.47h0c-7.34-.16-7.58-3.76-7.69-10.21-.18-10.8-.17-14.85-.18-14.78s-9.27-1.54-11.19-13.65c-1-6-.66-15.88-.15-24,.46-7.26,5.27-16.17,12.5-15.4Z"/><path class="cls-5" d="M520.26,96.48a1.56,1.56,0,0,0,1.5,1.57,1.49,1.49,0,0,0,1.6-1.4,1.56,1.56,0,0,0-1.49-1.57A1.49,1.49,0,0,0,520.26,96.48Z"/><path class="cls-5" d="M517.71,94.74c.19.2,1.37-.67,3-.67s2.89.84,3.08.64-.11-.46-.65-.85a4.32,4.32,0,0,0-2.46-.76,4.16,4.16,0,0,0-2.42.78C517.79,94.28,517.62,94.64,517.71,94.74Z"/><path class="cls-5" d="M536.59,96.48a1.56,1.56,0,0,0,1.5,1.57,1.49,1.49,0,0,0,1.6-1.4,1.56,1.56,0,0,0-1.5-1.57A1.48,1.48,0,0,0,536.59,96.48Z"/><path class="cls-5" d="M534.13,95.05c.19.2,1.37-.67,3-.67s2.89.84,3.07.64-.1-.46-.64-.85a4.25,4.25,0,0,0-2.46-.75,4,4,0,0,0-2.42.78C534.21,94.59,534,95,534.13,95.05Z"/><path class="cls-5" d="M528.07,107.43a11.77,11.77,0,0,0-2.72-.49c-.42,0-.83-.13-.9-.42a2.17,2.17,0,0,1,.29-1.26L526,102c1.75-4.62,3-8.42,2.83-8.49s-1.76,3.62-3.51,8.24c-.42,1.14-.82,2.23-1.21,3.27a2.46,2.46,0,0,0-.22,1.67,1.11,1.11,0,0,0,.7.63,3,3,0,0,0,.73.1A10.54,10.54,0,0,0,528.07,107.43Z"/><path class="cls-12" d="M526.91,127.2a30.83,30.83,0,0,0,16.21-4.33s-3.93,8.32-16,7.18Z"/><path class="cls-12" d="M528.77,111.46a3,3,0,0,1,2.7-1.12,2.75,2.75,0,0,1,1.9,1,1.74,1.74,0,0,1,.13,2,2,2,0,0,1-2.19.55,6.19,6.19,0,0,1-2.13-1.27,1.9,1.9,0,0,1-.48-.5.56.56,0,0,1,0-.62"/><path class="cls-5" d="M533,108.59c-.27,0-.27,1.79-1.83,3.08s-3.48,1.09-3.49,1.34.43.35,1.25.38a4.53,4.53,0,0,0,2.91-1,3.91,3.91,0,0,0,1.42-2.59C533.31,109,533.11,108.58,533,108.59Z"/><path class="cls-5" d="M533.38,92.12c.16.46,1.83.24,3.79.48s3.54.77,3.8.36c.12-.19-.16-.62-.8-1.06a6.61,6.61,0,0,0-5.78-.64C533.67,91.55,533.31,91.91,533.38,92.12Z"/><path class="cls-5" d="M518.33,89.9c.29.38,1.44,0,2.82,0s2.56.25,2.83-.14c.12-.2-.07-.58-.58-.93a4,4,0,0,0-2.3-.63,3.88,3.88,0,0,0-2.25.77C518.36,89.33,518.2,89.72,518.33,89.9Z"/><path class="cls-5" d="M534.08,70.17c-4.41.14-7.76,1.49-11.63,3.6a16.84,16.84,0,0,0-8.3,9.87,3.42,3.42,0,0,0,.1,2.72,2.67,2.67,0,0,0,3.32.72,7.83,7.83,0,0,0,2.7-2.49,5.18,5.18,0,0,0,10.05-.11A4.53,4.53,0,0,0,535,88.64a6,6,0,0,0,5.15-4.07,15,15,0,0,0,2.13,5.91c1.24,1.71,3.47,2.89,5.48,2.23a10.65,10.65,0,0,0,.08,5.41c.64,1.71,3.21,30.82,4.93,30.23s1.66-30.29,2-32a40.14,40.14,0,0,0,1.3-10.15A16.44,16.44,0,0,0,553,76.6a16.41,16.41,0,0,0-8.87-5.47,39.6,39.6,0,0,0-10.54-1"/><path class="cls-5" d="M558.33,123.18s-.12.08-.37.17a5.68,5.68,0,0,1-1.13.27,9.58,9.58,0,0,1-9.23-4.34,12.49,12.49,0,0,1-1.59-7.57c.2-2.77.84-5.29,1.14-7.61a61.27,61.27,0,0,0,.54-6.21c0-1.78,0-3.22,0-4.22a8.16,8.16,0,0,1,0-1.55,6.22,6.22,0,0,1,.25,1.54c.1,1,.2,2.44.2,4.23a50,50,0,0,1-.4,6.29c-.27,2.36-.89,4.89-1.08,7.57a12.12,12.12,0,0,0,1.45,7.21,8.94,8.94,0,0,0,4.61,3.78,9.77,9.77,0,0,0,4.06.62C557.78,123.28,558.31,123.12,558.33,123.18Z"/><path class="cls-9" d="M529.82,68.61a5.51,5.51,0,0,1,.62,2.87,9.24,9.24,0,0,1-9.06,9.41,5.33,5.33,0,0,1-2.89-.52c0-.12,1.11.2,2.86,0a9.28,9.28,0,0,0,8.62-9C530.06,69.71,529.7,68.64,529.82,68.61Z"/><path class="cls-9" d="M531.62,82.86c.06,0-.09.83-1,1.73A6.27,6.27,0,0,1,526,86.15a10,10,0,0,1-4.55-1.57c-1-.65-1.6-1.16-1.55-1.23a8,8,0,0,1,1.78.82,12,12,0,0,0,4.36,1.31,6.44,6.44,0,0,0,4.22-1.25C531.21,83.51,531.51,82.8,531.62,82.86Z"/><path class="cls-9" d="M560.77,79.16a11.39,11.39,0,0,1-.22,3.31,16.62,16.62,0,0,1-3,7.46,10.06,10.06,0,0,1-6.93,3.95,6.71,6.71,0,0,1-2.45-.24c-.56-.18-.84-.34-.82-.38a12.33,12.33,0,0,0,3.22.14,10.12,10.12,0,0,0,6.45-3.88,18.19,18.19,0,0,0,3-7.14A31.06,31.06,0,0,1,560.77,79.16Z"/><path class="cls-9" d="M563,85a3.08,3.08,0,0,1,.19,1,18.2,18.2,0,0,1,.07,2.82A14.19,14.19,0,0,1,560,97.55a9.79,9.79,0,0,1-4.3,2.93,8.45,8.45,0,0,1-4.23.26,7,7,0,0,1-2.63-1.11c-.55-.4-.78-.7-.76-.73a9.9,9.9,0,0,0,3.47,1.37,8.35,8.35,0,0,0,4-.38,9.46,9.46,0,0,0,4-2.78,14.66,14.66,0,0,0,3.26-8.27C563,86.51,562.88,85,563,85Z"/><polygon class="cls-9" points="393.17 240.76 369.77 294.24 401.98 294.24 424.91 240.34 393.17 240.76"/><path class="cls-1" d="M376.15,183.9l26.39,51.87h83.18L482.35,229l-24.1-.71-19.64-43.74a7.57,7.57,0,0,0-6.9-4.46H378.5A2.63,2.63,0,0,0,376.15,183.9Z"/><path class="cls-5" d="M417.81,207.13a3.19,3.19,0,1,1-3.18-3.19A3.19,3.19,0,0,1,417.81,207.13Z"/><rect class="cls-9" x="392.9" y="235.85" width="101.68" height="4.96"/><polygon class="cls-9" points="463.26 238.33 494.19 294.29 508.99 294.29 512.2 287.89 515.17 281.15 494.58 240.81 463.26 238.33"/><path class="cls-7" d="M517,142.41s-18,6.32-21.83,26.41l19,9.47Z"/><path class="cls-7" d="M517,142.41s-12.57,28.16-12.09,43.53c.17,5.36,3.68,19.29,3.68,19.29l6.53,34.62s50-6.77,51.11-6.77-1.67-28.41-1.67-28.41l8.15-54.59s-3.74-7.43-20.59-10C542,138.52,517,142.41,517,142.41Z"/><path class="cls-5" d="M512.32,158.75c.12.07-1.2,2.16-2.78,5.79a51.88,51.88,0,0,0-2.32,6.55,56.62,56.62,0,0,0-1.64,8.33,57.8,57.8,0,0,0-.27,8.5,52.5,52.5,0,0,0,.81,6.9c.72,3.89,1.54,6.22,1.42,6.26a7.88,7.88,0,0,1-.64-1.61,18.48,18.48,0,0,1-.6-1.94c-.2-.77-.47-1.64-.65-2.62a46.71,46.71,0,0,1-.95-7,52.5,52.5,0,0,1,.21-8.6,53.4,53.4,0,0,1,1.71-8.43,46.09,46.09,0,0,1,2.49-6.57c.39-.92.84-1.71,1.21-2.41a20,20,0,0,1,1-1.76A9.58,9.58,0,0,1,512.32,158.75Z"/><path class="cls-7" d="M523.09,142.14l.73-7.71a3.28,3.28,0,0,1,3.21-3l24.67-.36a3,3,0,0,1,3,2.72l.64,8.33a21.35,21.35,0,0,1-9.91,10.05c-7.25,3.52-18.53,3.64-18.53,3.64Z"/><path class="cls-5" d="M529.55,131.51c.08.07-.29.5-.44,1.34a14.18,14.18,0,0,0,0,3.43c.19,2.75.19,5,0,5s-.49-2.21-.67-5a9.4,9.4,0,0,1,.16-3.59C529,131.8,529.5,131.45,529.55,131.51Z"/><path class="cls-5" d="M535.45,141.07c-.18,0-.46-2.16-.61-4.84a21.52,21.52,0,0,1,0-3.48c.13-.93.51-1.41.58-1.36s-.11.55-.1,1.39.16,2.06.22,3.41C535.66,138.87,535.64,141.06,535.45,141.07Z"/><path class="cls-5" d="M542.87,140.87c-.19,0-.62-2.09-1-4.72s-.48-4.77-.29-4.8.61,2.09,1,4.72S543.05,140.84,542.87,140.87Z"/><path class="cls-5" d="M549.26,141.41c-.18,0-.71-2.28-.93-5.19s-.05-5.27.13-5.27.32,2.34.54,5.22S549.45,141.38,549.26,141.41Z"/><g class="cls-13"><path d="M554.15,170.87c-1,8.68-.33,23.61,2.73,31.8l14.41-23.8Z"/></g><path class="cls-7" d="M571.38,148.33l.07.07a36.77,36.77,0,0,1,8.72,15.19l2.65,12.1-28.35,4.39a35.46,35.46,0,0,1-1.08-15.86C554.75,155.11,571.38,148.33,571.38,148.33Z"/><path class="cls-5" d="M582.82,175.69a2.08,2.08,0,0,1-.56.14l-1.63.3-6.07,1L554,180.25l-.37.05v-.37c-.07-1.71-.11-3.49-.15-5.31-.07-4.77-.06-9.31.28-13.44a21.89,21.89,0,0,1,3.3-10.46,15.51,15.51,0,0,1,5.28-5.19,10.36,10.36,0,0,1,1.83-.85,3.07,3.07,0,0,1,.68-.2c0,.07-.91.36-2.38,1.28a16,16,0,0,0-5,5.21,21.88,21.88,0,0,0-3.09,10.26c-.29,4.09-.29,8.62-.22,13.37.05,1.82.1,3.6.14,5.3l-.38-.31,20.57-2.9,6.1-.8,1.64-.18A2.32,2.32,0,0,1,582.82,175.69Z"/><path class="cls-6" d="M523,157.92c-.12.14-1.89-1.23-4-3s-3.62-3.42-3.5-3.56,1.89,1.23,4,3.06S523.07,157.78,523,157.92Z"/><path class="cls-6" d="M519.12,172.84c.1.15-1.45,1.3-3.47,2.55s-3.73,2.13-3.83,2,1.46-1.3,3.48-2.55S519,172.68,519.12,172.84Z"/><path class="cls-6" d="M534.93,176.5c-.19,0-.19-2.48,0-5.51s.48-5.48.67-5.47.19,2.48,0,5.51S535.11,176.51,534.93,176.5Z"/><path class="cls-6" d="M550.3,191.41c-.15.12-1.62-1.74-3.58-3.88s-3.67-3.77-3.55-3.92,2.05,1.29,4,3.47S550.45,191.32,550.3,191.41Z"/><path class="cls-6" d="M552.47,160.25c.1.15-1.58,1.46-3.76,2.93s-4,2.52-4.13,2.37,1.58-1.47,3.76-2.93S552.37,160.1,552.47,160.25Z"/><path class="cls-6" d="M538.58,149c.1.16-1.73,1.51-4.1,3s-4.36,2.62-4.46,2.47,1.74-1.52,4.1-3S538.48,148.82,538.58,149Z"/><path class="cls-6" d="M551.1,153.46c-.17.06-1-1.75-2-4.06s-1.5-4.23-1.33-4.3,1,1.75,1.95,4.06S551.28,153.39,551.1,153.46Z"/><path class="cls-6" d="M568.33,159.1c-.13.14-1.42-.94-2.88-2.39s-2.53-2.74-2.4-2.87,1.41.94,2.87,2.4S568.46,159,568.33,159.1Z"/><path class="cls-6" d="M561.26,171.67c-.18,0-.43-1.75-.55-3.94s-.07-4,.11-4,.44,1.75.56,3.94S561.45,171.66,561.26,171.67Z"/><path class="cls-6" d="M575.54,169.07c0,.18-2,.23-4.5-.15s-4.39-1-4.35-1.21,2,.18,4.45.54S575.55,168.88,575.54,169.07Z"/><path class="cls-6" d="M517.82,195c-.17.08-1.33-2-2.59-4.7s-2.15-4.91-2-5,1.32,2,2.59,4.7S518,195,517.82,195Z"/><path class="cls-6" d="M536.68,215.36c-.15.11-1.55-1.57-3.13-3.75s-2.75-4-2.6-4.15,1.56,1.57,3.14,3.75S536.83,215.25,536.68,215.36Z"/><path class="cls-6" d="M552.39,206.83c.07.18-1.85,1.08-4.28,2s-4.45,1.56-4.52,1.39,1.85-1.08,4.28-2S552.32,206.66,552.39,206.83Z"/><path class="cls-6" d="M513.85,223.31c-.17-.08.38-1.67,1.23-3.55s1.68-3.34,1.85-3.26-.38,1.66-1.23,3.54S514,223.38,513.85,223.31Z"/><path class="cls-6" d="M501.73,165.08c-.16.07-.94-1.35-1.25-3.29s0-3.54.15-3.52.21,1.56.51,3.41S501.91,165,501.73,165.08Z"/><path class="cls-6" d="M523.25,210.27c-.09.16-1.8-.62-3.82-1.74s-3.59-2.17-3.5-2.33,1.8.62,3.83,1.74S523.34,210.1,523.25,210.27Z"/><path class="cls-6" d="M535.7,188.79c.12.14-1.41,1.73-3.43,3.56s-3.74,3.19-3.87,3.06,1.41-1.73,3.42-3.56S535.57,188.66,535.7,188.79Z"/><g class="cls-13"><path d="M528.07,188.4c.81,4.42,2.51,8.84,5.74,12s8.2,4.73,12.4,3.09a3,3,0,0,0,2-1.85,2.44,2.44,0,0,0-1.62-2.55,9.74,9.74,0,0,0-3.24-.45,18.36,18.36,0,0,1-15-9.72"/></g><path class="cls-5" d="M544.83,198.78c0,.05-.3.1-.87.15a11,11,0,0,1-2.39-.05,15.07,15.07,0,0,1-3.47-.82,16.68,16.68,0,0,1-7.11-4.94,15.72,15.72,0,0,1-2-3,11.38,11.38,0,0,1-.88-2.23c-.15-.54-.21-.85-.16-.86s.47,1.15,1.46,2.86a17.21,17.21,0,0,0,2,2.79,20.71,20.71,0,0,0,3.15,2.79,20.43,20.43,0,0,0,3.72,2,17.54,17.54,0,0,0,3.32.92C543.58,198.74,544.82,198.66,544.83,198.78Z"/><path class="cls-10" d="M473.9,219.55l18.66-2.25,13.15,8.63L556,213.87l1.19-34.42,22.33-2.95v41.68a19.12,19.12,0,0,1-19.64,18.71l-73.66-2-3.12-6.27-15.81-.47Z"/><path class="cls-12" d="M555.36,213.87a5.78,5.78,0,0,1-.94.29l-2.74.71-10.09,2.52-33.35,8.08-3.1.74-.12,0-.11-.07-13.14-8.64.18,0-18.67,2.16.12-.07-4.93,6.26c-.55.69-1,1.23-1.33,1.64a4.31,4.31,0,0,1-.48.55,3.16,3.16,0,0,1,.4-.61c.32-.42.73-1,1.26-1.7,1.14-1.53,2.76-3.67,4.79-6.37l.05-.06h.08L491.89,217h.1l.08.06,13.16,8.6-.23,0,3.11-.74L541.49,217l10.14-2.33,2.76-.61A6.29,6.29,0,0,1,555.36,213.87Z"/><path class="cls-12" d="M484.09,224.89a44.77,44.77,0,0,1-7.25.3h-1.32l.18-.07a32.91,32.91,0,0,1-4.7,3.62,35.22,35.22,0,0,1,4.33-4.06l.08-.06h1.43A45.53,45.53,0,0,1,484.09,224.89Z"/><path class="cls-12" d="M564.62,219.49c-.15.1-1.12-2.26-3.66-3.82s-5.05-1.47-5-1.65a3.19,3.19,0,0,1,1.62-.13A8.62,8.62,0,0,1,564,218C564.55,218.85,564.69,219.47,564.62,219.49Z"/><rect class="cls-5" x="158.27" y="494.74" width="84.14" height="11.56"/><path class="cls-5" d="M242.55,506.44H158.13V494.59h84.42Zm-84.13-.29h83.85V494.88H158.42Z"/><polygon class="cls-5" points="166.07 502.45 178.19 562.2 223 562.2 234.7 506.3 166.07 502.45"/><polygon class="cls-9" points="166.07 556.54 172.53 565.42 227 565.42 234.7 556.54 166.07 556.54"/><path class="cls-5" d="M197.18,504.19c-.16,0-.37-27.67-.47-61.81s0-61.82.12-61.82.38,27.67.48,61.82S197.35,504.19,197.18,504.19Z"/><path class="cls-5" d="M215.92,434.93a2.92,2.92,0,0,1-.22.64c-.2.47-.45,1.06-.75,1.79l-.55,1.29c-.17.49-.36,1-.56,1.57s-.42,1.17-.65,1.81-.4,1.33-.62,2.05a84.86,84.86,0,0,0-2.36,10.3,125.92,125.92,0,0,0-1.3,12.88,172.77,172.77,0,0,0,.67,23.54c.27,3,.54,5.43.74,7.1.09.79.16,1.43.21,1.94a3.46,3.46,0,0,1,0,.68,2.79,2.79,0,0,1-.16-.67c-.08-.5-.19-1.14-.32-1.92-.27-1.66-.61-4.09-.93-7.09a154.18,154.18,0,0,1-.85-23.6,118.24,118.24,0,0,1,1.36-12.95A79.45,79.45,0,0,1,212.16,444c.24-.72.43-1.42.67-2.06s.48-1.23.7-1.8.42-1.07.6-1.56.42-.89.6-1.27c.35-.71.64-1.29.86-1.75A3.34,3.34,0,0,1,215.92,434.93Z"/><path class="cls-5" d="M213.77,412.54a5.36,5.36,0,0,1-.26.91l-.88,2.58c-.2.56-.41,1.18-.64,1.85l-.68,2.24c-.49,1.6-1.06,3.42-1.57,5.47-.27,1-.55,2.08-.84,3.2s-.52,2.29-.79,3.5c-.59,2.41-1,5-1.56,7.76-.92,5.49-1.74,11.57-2.3,18s-.77,12.55-.85,18.12.06,10.61.28,14.82c.08,2.11.21,4,.32,5.69s.2,3.11.31,4.28.16,2,.21,2.72a5.69,5.69,0,0,1,0,.95,6,6,0,0,1-.15-.94c-.08-.67-.19-1.57-.32-2.7s-.28-2.62-.41-4.29-.31-3.58-.41-5.69c-.28-4.22-.4-9.25-.41-14.84s.27-11.74.8-18.17,1.4-12.52,2.36-18c.56-2.74,1-5.36,1.61-7.77.29-1.21.56-2.38.83-3.51s.6-2.17.88-3.2c.54-2,1.14-3.86,1.66-5.45.26-.8.5-1.54.73-2.23l.69-1.84,1-2.54A5.21,5.21,0,0,1,213.77,412.54Z"/><path class="cls-5" d="M191.86,509.09a1.19,1.19,0,0,1-.05-.32c0-.25,0-.57-.08-1q-.09-1.32-.24-3.66c-.21-3.23-.49-7.83-.85-13.48-.73-11.39-1.78-27.11-3.7-44.4-1-8.65-2.11-16.86-3.29-24.3-.63-3.72-1.2-7.25-1.84-10.54s-1.23-6.36-1.82-9.15-1.17-5.3-1.67-7.51-.95-4.1-1.35-5.65l-.87-3.57c-.09-.38-.16-.68-.21-.93a1.31,1.31,0,0,1-.06-.32,1.19,1.19,0,0,1,.11.31l.27.91,1,3.54c.43,1.54.93,3.43,1.45,5.63s1.17,4.71,1.75,7.5,1.28,5.84,1.89,9.14,1.26,6.83,1.9,10.55c1.21,7.45,2.37,15.67,3.35,24.32,1.91,17.31,2.9,33.05,3.53,44.44.31,5.7.52,10.31.65,13.5.06,1.56.1,2.78.13,3.67,0,.39,0,.7,0,.95A1,1,0,0,1,191.86,509.09Z"/><path class="cls-7" d="M196.5,393.86c-.37-3.92-4.33-6.88-8.27-6.92s-7.61,2.32-10,5.44-3.73,6.92-4.82,10.71c-2.65,9.23-4.1,18.94-3,28.48s5,18.94,11.86,25.69c1.11,1.09,2.55,2.19,4.08,1.86a4.81,4.81,0,0,0,2.16-1.33,63.76,63.76,0,0,0,20.69-48.48c-.11-3.63-.59-7.4-2.6-10.43s-6.69-6.23-10.11-5"/><path class="cls-7" d="M167.09,362.45l-5.55,10.05c-.13.23-.3.5-.56.52s-.51-.25-.67-.5L145.64,350,149,348.1Z"/><g class="cls-8"><path d="M167.09,362.45l-5.55,10.05c-.13.23-.3.5-.56.52s-.51-.25-.67-.5L145.64,350,149,348.1Z"/></g><path class="cls-7" d="M196.83,380.56l-50-29.52a2.31,2.31,0,0,1-1.21-1.23c-.2-.74.35-1.45.89-2a34.46,34.46,0,0,1,26.73-10.51,30.53,30.53,0,0,1,24.16,15c4.83,8.63,5,20-.55,28.23"/><path class="cls-5" d="M154,341.62a3,3,0,0,1,.66-.09c.43,0,1.07-.09,1.89-.09a37.25,37.25,0,0,1,6.94.56A41.09,41.09,0,0,1,184,351.88a41.25,41.25,0,0,1,11.89,19.41,38.31,38.31,0,0,1,1.24,6.85c.09.82.07,1.46.09,1.89a3,3,0,0,1,0,.66,24.85,24.85,0,0,1-.32-2.52,42.66,42.66,0,0,0-1.41-6.76,40.89,40.89,0,0,0-32-29,42.46,42.46,0,0,0-6.86-.73C154.93,341.64,154,341.67,154,341.62Z"/><path class="cls-5" d="M190.06,360.18a11.75,11.75,0,0,1-2.52,1.15c-1.6.63-3.83,1.43-6.32,2.22s-4.77,1.43-6.43,1.83a11.78,11.78,0,0,1-2.73.52,13.61,13.61,0,0,1,2.61-.93l6.37-2,6.35-2.05A14,14,0,0,1,190.06,360.18Z"/><path class="cls-5" d="M182.19,339a35,35,0,0,1,.28,11.19c-.17,0-.21-2.51-.29-5.59S182,339,182.19,339Z"/><path class="cls-5" d="M146.38,350.48A21.59,21.59,0,0,1,150,349.2c2.27-.7,5.44-1.59,9-2.44s6.75-1.5,9.09-1.91a22.68,22.68,0,0,1,3.82-.52,25.94,25.94,0,0,1-3.74.94c-2.31.51-5.51,1.23-9,2.07s-6.7,1.67-9,2.27A28.31,28.31,0,0,1,146.38,350.48Z"/><path class="cls-7" d="M173.77,384.58c-4.3-3.26-8.85-3.9-14.25-3.69a43.62,43.62,0,0,0-15.59,4c-8.43,3.7-16.36,9.14-21.4,16.85s-6.79,17.91-3,26.31a3.68,3.68,0,0,0,1.71,2.07,4.07,4.07,0,0,0,2.82-.21c9.59-3.13,19.25-6.29,28.08-11.19S169,407,173.7,398.11a17.73,17.73,0,0,0,2.27-6.84,8.5,8.5,0,0,0-2.2-6.69"/><path class="cls-5" d="M173.86,383.57a3.65,3.65,0,0,1-.69.28l-2,.69-1.45.49c-.53.19-1.09.42-1.7.66-1.21.49-2.62,1-4.11,1.7l-2.35,1.07c-.82.38-1.63.84-2.49,1.28-1.74.86-3.5,1.95-5.37,3.05a85.32,85.32,0,0,0-21.17,18.62c-1.33,1.72-2.64,3.33-3.71,4.94-.54.8-1.11,1.55-1.59,2.31s-.92,1.5-1.36,2.2c-.9,1.38-1.57,2.71-2.21,3.85-.31.58-.62,1.11-.87,1.61l-.67,1.38c-.38.78-.7,1.41-.94,1.9a2.91,2.91,0,0,1-.37.65,3.1,3.1,0,0,1,.26-.69l.84-2,.62-1.41c.24-.51.54-1.05.83-1.63.62-1.16,1.26-2.52,2.15-3.92.43-.71.87-1.46,1.34-2.23s1-1.53,1.56-2.34c1.06-1.64,2.36-3.27,3.69-5a82.52,82.52,0,0,1,21.31-18.74c1.89-1.1,3.67-2.18,5.43-3,.87-.43,1.7-.89,2.52-1.26l2.38-1c1.51-.7,2.93-1.16,4.16-1.63.62-.22,1.19-.44,1.73-.61l1.47-.44,2-.59A3.75,3.75,0,0,1,173.86,383.57Z"/><path class="cls-5" d="M140.24,401.77c0,.16-4.63,1.67-10.46,3.37s-10.59,3-10.63,2.8,4.63-1.67,10.46-3.38S140.2,401.61,140.24,401.77Z"/><path class="cls-5" d="M139.81,424.86a17.32,17.32,0,0,1-.23-3.26c-.05-2-.06-4.8,0-7.88s.25-5.86.41-7.87a16.63,16.63,0,0,1,.42-3.24,19.25,19.25,0,0,1,0,3.27c-.07,2.21-.15,4.89-.24,7.86s-.15,5.65-.2,7.86A18.36,18.36,0,0,1,139.81,424.86Z"/><path class="cls-5" d="M159.6,414.78c-.17,0-.69-5.65-1.18-12.64s-.74-12.68-.57-12.69.69,5.65,1.17,12.65S159.76,414.77,159.6,414.78Z"/><path class="cls-5" d="M135,388.9a18.49,18.49,0,0,1,3.36-.1c2.07,0,4.92.07,8.07.18s6,.23,8.07.35a18.79,18.79,0,0,1,3.34.32,17.59,17.59,0,0,1-3.35.11c-2.06,0-4.92-.08-8.08-.18s-6-.24-8.07-.36A18.79,18.79,0,0,1,135,388.9Z"/><path class="cls-5" d="M184.42,460a3.28,3.28,0,0,1-.07-.68c0-.52,0-1.17-.09-2-.07-1.7-.09-4.18,0-7.23s.26-6.69.62-10.72,1-8.43,1.76-13,1.83-8.93,2.85-12.84,2.12-7.38,3.12-10.27,1.86-5.2,2.52-6.78c.31-.74.57-1.34.77-1.81a3.11,3.11,0,0,1,.3-.62,3,3,0,0,1-.19.66c-.17.49-.39,1.1-.66,1.86-.59,1.6-1.4,3.93-2.34,6.83s-2,6.38-3,10.27-2,8.23-2.79,12.81-1.38,9-1.8,13-.63,7.64-.74,10.68-.17,5.51-.16,7.22c0,.8,0,1.45,0,2A2.83,2.83,0,0,1,184.42,460Z"/><path class="cls-5" d="M187.06,425.82a13.42,13.42,0,0,1-2,2.19c-1.3,1.29-3.14,3-5.23,4.86s-4.06,3.44-5.51,4.55a13,13,0,0,1-2.43,1.69,16.77,16.77,0,0,1,2.16-2l5.38-4.67,5.34-4.72A15.07,15.07,0,0,1,187.06,425.82Z"/><path class="cls-5" d="M202.89,438.58a25.42,25.42,0,0,1-2.12-2.95c-1.37-2-3.07-4.47-4.94-7.21l-5.05-7.14a23.24,23.24,0,0,1-2-3,20.93,20.93,0,0,1,2.36,2.76c1.39,1.76,3.24,4.25,5.2,7.06s3.63,5.41,4.8,7.32A19.06,19.06,0,0,1,202.89,438.58Z"/><path class="cls-5" d="M194.6,398.47c.09.13-5.17,3.68-11.75,7.9s-12,7.55-12.07,7.41,5.17-3.68,11.75-7.91S194.51,398.33,194.6,398.47Z"/><path class="cls-5" d="M209.43,414.47c-.12.12-3.68-3.17-8-7.35s-7.65-7.66-7.53-7.78a99.21,99.21,0,0,1,7.95,7.35C206.17,410.87,209.55,414.35,209.43,414.47Z"/><path class="cls-7" d="M213.16,414.15l4.51-.37a22.5,22.5,0,0,0,9.12-2.79,36.73,36.73,0,0,1,4.25-2.14c5.58-2.24,11.81-1.84,17.82-2.14a73.64,73.64,0,0,0,28.34-7.25,2.7,2.7,0,0,0,1.24-1.12c.93-1.69-.8-3.19-2.28-4.11-7.61-4.68-15.35-9.43-24-11.76s-18.42-1.93-25.78,3.14c-8.64,5.94-11.79,18.15-13.25,28.54"/><path class="cls-5" d="M278.54,397.79a6.11,6.11,0,0,1-.76-.36l-2.14-1.12c-1.86-1-4.53-2.42-7.91-4a73.6,73.6,0,0,0-12.23-4.71,40.44,40.44,0,0,0-15.86-1.29,27.11,27.11,0,0,0-14.46,6.21,32.3,32.3,0,0,0-7.53,10.57c-1.58,3.39-2.56,6.27-3.27,8.24l-.8,2.27a5,5,0,0,1-.32.79,4.34,4.34,0,0,1,.2-.82l.7-2.32a74.12,74.12,0,0,1,3.11-8.33,31.78,31.78,0,0,1,7.55-10.81,27.34,27.34,0,0,1,14.74-6.39A40.12,40.12,0,0,1,255.64,387a71.68,71.68,0,0,1,12.28,4.86c3.36,1.68,6,3.18,7.83,4.22l2.08,1.21A4.06,4.06,0,0,1,278.54,397.79Z"/><path class="cls-5" d="M267.7,403.61c-.09.14-6-3.68-13.19-8.53s-12.95-8.89-12.85-9,6,3.68,13.19,8.53S267.79,403.47,267.7,403.61Z"/><path class="cls-5" d="M262,385.49a14.19,14.19,0,0,1-4.61.92,14,14,0,0,1-4.7-.07,26.88,26.88,0,0,1,4.64-.52C259.92,385.58,262,385.32,262,385.49Z"/><path class="cls-5" d="M235.55,380.74a31.47,31.47,0,0,1-4.39,7.45,15.65,15.65,0,0,1,1.94-3.88A16.19,16.19,0,0,1,235.55,380.74Z"/><path class="cls-5" d="M240.84,407.09a14.89,14.89,0,0,1-2.84-1.54c-1.71-1-4-2.55-6.48-4.34s-4.63-3.48-6.19-4.72a17.19,17.19,0,0,1-2.45-2.1,16.6,16.6,0,0,1,2.7,1.76l6.3,4.57c2.45,1.79,4.71,3.35,6.35,4.47A19.88,19.88,0,0,1,240.84,407.09Z"/><path class="cls-7" d="M219.81,433.33c-4.31-1.13-9.44,3.05-10.33,7.42s.75,8.83,2.67,12.85c4.24,8.9,10.09,17.16,17.8,23.3s17.37,10.07,27.23,10c-1.82-8.45.49-17.29-.53-25.88a33.68,33.68,0,0,0-29.82-29.52c-2.74-.29-5.93-.73-7,1.81"/><path class="cls-5" d="M257.18,486.92a2.77,2.77,0,0,1-.61-.28,10.62,10.62,0,0,1-1.61-1.08,16.89,16.89,0,0,1-4.25-5.69c-.69-1.33-1.46-2.78-2.21-4.38s-1.5-3.32-2.31-5.12a49.53,49.53,0,0,0-2.85-5.48,42.55,42.55,0,0,0-3.92-5.33c-2.95-3.46-6.11-6.46-8.85-9.32a60.25,60.25,0,0,1-6.75-8.1,29.58,29.58,0,0,1-3.3-6.3,18.28,18.28,0,0,1-.58-1.85,2.43,2.43,0,0,1-.13-.66c.05,0,.3.88.93,2.43a32.18,32.18,0,0,0,3.43,6.14,64.23,64.23,0,0,0,6.79,8c2.76,2.83,5.94,5.82,8.92,9.32a41.52,41.52,0,0,1,4,5.41,47.16,47.16,0,0,1,2.85,5.55c.8,1.81,1.55,3.52,2.27,5.14s1.47,3.06,2.13,4.4a17.34,17.34,0,0,0,4,5.7C256.37,486.46,257.22,486.87,257.18,486.92Z"/><path class="cls-5" d="M234.91,479.9a13.55,13.55,0,0,1,.4-2.9c.34-1.78.89-4.21,1.64-6.86s1.54-5,2.18-6.71a12.52,12.52,0,0,1,1.18-2.68,15.35,15.35,0,0,1-.78,2.82c-.53,1.72-1.26,4.09-2,6.73s-1.35,5.05-1.8,6.79A15.26,15.26,0,0,1,234.91,479.9Z"/><path class="cls-5" d="M256.37,459.14a17.71,17.71,0,0,1-3-.7c-1.85-.48-4.41-1.14-7.26-1.79s-5.46-1.14-7.34-1.5a16.74,16.74,0,0,1-3-.67,15,15,0,0,1,3.11.26c1.9.25,4.53.68,7.4,1.33s5.42,1.38,7.25,2A14.69,14.69,0,0,1,256.37,459.14Z"/><path class="cls-5" d="M218.93,465.17a18.55,18.55,0,0,1,.47-3.35c.38-2.06,1-4.89,1.79-8s1.66-5.85,2.33-7.83a17.66,17.66,0,0,1,1.24-3.16,20.56,20.56,0,0,1-.83,3.28c-.57,2-1.36,4.78-2.16,7.86s-1.47,5.88-2,7.9A19.33,19.33,0,0,1,218.93,465.17Z"/><path class="cls-5" d="M246.49,441.05c0,.17-5.4-.27-12-1s-12-1.4-11.94-1.57,5.39.27,12,1S246.51,440.89,246.49,441.05Z"/><path class="cls-9" d="M242.55,506.25c0,.16-18.9.3-42.21.3s-42.21-.14-42.21-.3,18.9-.3,42.21-.3S242.55,506.08,242.55,506.25Z"/><path class="cls-9" d="M229.4,530.57c0,.16-12.73.3-28.44.3s-28.43-.14-28.43-.3,12.73-.3,28.43-.3S229.4,530.4,229.4,530.57Z"/><path class="cls-9" d="M229.9,534c0,.17-12.74.3-28.44.3S173,534.21,173,534s12.73-.29,28.44-.29S229.9,533.88,229.9,534Z"/><path class="cls-9" d="M229.9,527.7c0,.17-13.17.3-29.42.3s-29.41-.13-29.41-.3,13.17-.3,29.41-.3S229.9,527.54,229.9,527.7Z"/></svg>