<svg xmlns="http://www.w3.org/2000/svg" xmlns:xlink="http://www.w3.org/1999/xlink" viewBox="0 0 1000 600"><defs><style>.cls-1{fill:none;}.cls-2{isolation:isolate;}.cls-3,.cls-5{fill:#f4f7fa;}.cls-37,.cls-4{fill:#d8dee8;}.cls-13,.cls-17,.cls-5{mix-blend-mode:soft-light;}.cls-16,.cls-17,.cls-5{opacity:0.5;}.cls-6{fill:url(#linear-gradient);}.cls-7{fill:url(#linear-gradient-2);}.cls-8{fill:url(#linear-gradient-3);}.cls-9{fill:#26264f;}.cls-10{fill:url(#linear-gradient-4);}.cls-11{fill:url(#linear-gradient-5);}.cls-12,.cls-13{fill:#fff;}.cls-13{opacity:0.48;}.cls-14{fill:url(#linear-gradient-6);}.cls-15{fill:url(#linear-gradient-7);}.cls-18{clip-path:url(#clip-path);}.cls-19{fill:url(#linear-gradient-8);}.cls-20,.cls-35,.cls-37{mix-blend-mode:multiply;}.cls-20{opacity:0.7;fill:url(#linear-gradient-9);}.cls-21{fill:url(#linear-gradient-10);}.cls-22{fill:url(#linear-gradient-11);}.cls-23{fill:url(#linear-gradient-12);}.cls-24{fill:url(#linear-gradient-13);}.cls-25{fill:url(#linear-gradient-14);}.cls-26{fill:url(#linear-gradient-15);}.cls-27{clip-path:url(#clip-path-2);}.cls-28{fill:url(#linear-gradient-16);}.cls-29{fill:url(#linear-gradient-17);}.cls-30{fill:url(#linear-gradient-18);}.cls-31{fill:url(#linear-gradient-19);}.cls-32{fill:url(#linear-gradient-20);}.cls-33{fill:url(#linear-gradient-21);}.cls-34{fill:url(#linear-gradient-22);}.cls-35{opacity:0.3;}.cls-36{fill:url(#linear-gradient-23);}.cls-38{fill:url(#linear-gradient-24);}.cls-39{clip-path:url(#clip-path-3);}.cls-40{fill:url(#linear-gradient-25);}.cls-41{fill:url(#linear-gradient-26);}.cls-42{fill:url(#linear-gradient-27);}.cls-43{fill:url(#linear-gradient-28);}.cls-44{fill:url(#linear-gradient-29);}.cls-45{fill:url(#linear-gradient-30);}.cls-46{fill:url(#linear-gradient-31);}.cls-47{fill:url(#linear-gradient-32);}.cls-48{fill:url(#linear-gradient-33);}</style><linearGradient id="linear-gradient" x1="399.84" y1="306.59" x2="639.25" y2="306.59" gradientUnits="userSpaceOnUse"><stop offset="0" stop-color="#ffc444"/><stop offset="1" stop-color="#f36f56"/></linearGradient><linearGradient id="linear-gradient-2" x1="912.13" y1="211.02" x2="1171.6" y2="211.02" gradientTransform="translate(-397.39 99.98) rotate(3.95)" gradientUnits="userSpaceOnUse"><stop offset="0" stop-color="#ff9085"/><stop offset="1" stop-color="#fb6fbb"/></linearGradient><linearGradient id="linear-gradient-3" x1="45.3" y1="451.3" x2="-106.23" y2="619.29" gradientTransform="matrix(0.98, -0.19, 0.19, 0.98, 581.67, -109.06)" xlink:href="#linear-gradient"/><linearGradient id="linear-gradient-4" x1="275.47" y1="380.6" x2="600.55" y2="380.6" gradientUnits="userSpaceOnUse"><stop offset="0" stop-color="#444b8c"/><stop offset="1" stop-color="#26264f"/></linearGradient><linearGradient id="linear-gradient-5" x1="288.82" y1="378.46" x2="589.55" y2="378.46" gradientUnits="userSpaceOnUse"><stop offset="0" stop-color="#aa80f9"/><stop offset="1" stop-color="#6165d7"/></linearGradient><linearGradient id="linear-gradient-6" x1="275.47" y1="505.59" x2="765.19" y2="505.59" xlink:href="#linear-gradient-4"/><linearGradient id="linear-gradient-7" x1="511.2" y1="176.63" x2="727.36" y2="176.63" gradientUnits="userSpaceOnUse"><stop offset="0" stop-color="#fff"/><stop offset="1" stop-color="#ebeff2"/></linearGradient><clipPath id="clip-path"><polygon class="cls-1" points="707.59 252.49 532.78 255.01 532.78 74.11 707.59 79.08 707.59 252.49"/></clipPath><linearGradient id="linear-gradient-8" x1="672.48" y1="97.17" x2="630.97" y2="178.46" gradientUnits="userSpaceOnUse"><stop offset="0" stop-color="#ab316d"/><stop offset="1" stop-color="#792d3d"/></linearGradient><linearGradient id="linear-gradient-9" x1="673.47" y1="95.61" x2="631.54" y2="177.72" xlink:href="#linear-gradient-8"/><linearGradient id="linear-gradient-10" x1="631.76" y1="358.24" x2="611.86" y2="213.95" gradientUnits="userSpaceOnUse"><stop offset="0" stop-color="#e38ddd"/><stop offset="1" stop-color="#9571f6"/></linearGradient><linearGradient id="linear-gradient-11" x1="619.07" y1="236.02" x2="616.16" y2="172.81" xlink:href="#linear-gradient"/><linearGradient id="linear-gradient-12" x1="615.96" y1="180.44" x2="617.07" y2="137.72" xlink:href="#linear-gradient"/><linearGradient id="linear-gradient-13" x1="598.43" y1="175.95" x2="599.46" y2="136.6" xlink:href="#linear-gradient"/><linearGradient id="linear-gradient-14" x1="633" y1="176.96" x2="634.01" y2="138.23" xlink:href="#linear-gradient"/><linearGradient id="linear-gradient-15" x1="519.44" y1="389.08" x2="696.88" y2="389.08" xlink:href="#linear-gradient-7"/><clipPath id="clip-path-2"><polygon class="cls-1" points="680.22 445.75 537.14 454.62 537.14 303.6 680.22 299.87 680.22 445.75"/></clipPath><linearGradient id="linear-gradient-16" x1="598.72" y1="304.36" x2="614.44" y2="555.08" gradientUnits="userSpaceOnUse"><stop offset="0" stop-color="#f36f56"/><stop offset="1" stop-color="#ffc444"/></linearGradient><linearGradient id="linear-gradient-17" x1="608.88" y1="418.62" x2="608.37" y2="387.55" gradientUnits="userSpaceOnUse"><stop offset="0" stop-color="#311944"/><stop offset="1" stop-color="#893976"/></linearGradient><linearGradient id="linear-gradient-18" x1="609.13" y1="421.51" x2="608.97" y2="395.31" xlink:href="#linear-gradient-8"/><linearGradient id="linear-gradient-19" x1="606.93" y1="383.97" x2="611.27" y2="331.7" xlink:href="#linear-gradient-8"/><linearGradient id="linear-gradient-20" x1="592.27" y1="383.15" x2="596.55" y2="331.57" xlink:href="#linear-gradient-8"/><linearGradient id="linear-gradient-21" x1="623.69" y1="384.62" x2="628.03" y2="332.39" xlink:href="#linear-gradient-8"/><linearGradient id="linear-gradient-22" x1="605.83" y1="358.97" x2="617.41" y2="323.05" gradientUnits="userSpaceOnUse"><stop offset="0" stop-color="#311944"/><stop offset="1" stop-color="#6b3976"/></linearGradient><linearGradient id="linear-gradient-23" x1="605.86" y1="358.87" x2="617.53" y2="322.68" xlink:href="#linear-gradient-22"/><linearGradient id="linear-gradient-24" x1="301.55" y1="282.74" x2="574.55" y2="282.74" xlink:href="#linear-gradient-7"/><clipPath id="clip-path-3"><polygon class="cls-1" points="548.96 367.57 329.36 376.69 329.36 169.78 548.96 170.98 548.96 367.57"/></clipPath><linearGradient id="linear-gradient-25" x1="521.01" y1="192.21" x2="405.03" y2="420.52" gradientTransform="matrix(1, 0, 0, 1, 0, 0)" xlink:href="#linear-gradient-2"/><linearGradient id="linear-gradient-26" x1="439.16" y1="360.98" x2="441.09" y2="255.94" gradientUnits="userSpaceOnUse"><stop offset="0" stop-color="#311944"/><stop offset="0.56" stop-color="#6f2b60"/><stop offset="1" stop-color="#a03976"/></linearGradient><linearGradient id="linear-gradient-27" x1="442.29" y1="290.94" x2="449.57" y2="338.23" xlink:href="#linear-gradient"/><linearGradient id="linear-gradient-28" x1="438.85" y1="218.34" x2="437.02" y2="338.88" xlink:href="#linear-gradient"/><linearGradient id="linear-gradient-29" x1="509.03" y1="461.55" x2="507.2" y2="582.34" gradientTransform="translate(-148.58 -189.07) rotate(-6.51)" xlink:href="#linear-gradient"/><linearGradient id="linear-gradient-30" x1="463.96" y1="218.55" x2="462.14" y2="338.85" xlink:href="#linear-gradient"/><linearGradient id="linear-gradient-31" x1="444.89" y1="195.17" x2="439.67" y2="240.2" xlink:href="#linear-gradient"/><linearGradient id="linear-gradient-32" x1="-4157.1" y1="169.05" x2="-4040.43" y2="169.05" gradientTransform="translate(4428.12)" xlink:href="#linear-gradient-5"/><linearGradient id="linear-gradient-33" x1="-4141.7" y1="138.36" x2="-4040.46" y2="271.69" gradientTransform="translate(4428.12)" xlink:href="#linear-gradient-5"/></defs><g class="cls-2"><g id="Capa_1" data-name="Capa 1"><path class="cls-3" d="M720.11,446C617.72,576.91,378,579,311.57,506.27c-26.49-29-33.48-78.89-43.77-152.12-4.95-35.26-5.65-63.67-6.07-83.17-1.45-66.32-2.17-99.49,8.5-122C300.81,84.35,407.05,59.21,475.72,58q7.18-.12,14.5.1c80.4,2.4,171.13,35.87,227.09,107.39a237.73,237.73,0,0,1,16.17,23.36C784.56,272.88,776,374.51,720.11,446Z"/><path class="cls-4" d="M520.51,510.61c-22-4-27.45-51.26-28.14-58-1.73-16.83-3.87-37.67,8.3-55.31,17.58-25.5,47.52-18.86,54.66-40,4.39-13-6.41-17-6.92-41.88-.15-7.14-.68-32.92,17.35-53.75,12.85-14.86,29.18-20.33,37.82-22.44a83,83,0,0,0,6-31.08c-.12-21.13-8.76-29.28-4.28-40.48,5.14-12.84,23.44-19.54,37.37-19.41,37.11.35,57.45,49.31,58.84,52.79,3.6,9,15,37.51,2,58.26-10.31,16.39-27.82,15.13-30.49,28.61s14,18.68,17.92,39.2c3.36,17.53-4,38.43-17.13,50.19-21.86,19.66-48.63,4-60.34,20.25-13.62,19,13.87,52.45,1.71,63.75-11.54,10.73-41.73-14.42-56.43-1.9-10.63,9.06-.77,27.24-15.11,41.79C542.75,502.07,532,512.71,520.51,510.61Z"/><path class="cls-5" d="M636.08,159.41c14.1,3.25,20.63,45.71,13.18,82.07-5.13,25-12.45,25.5-31.24,67.88C592.56,366.8,602,374.9,583.51,395c-25.41,27.54-51.46,21.21-65.45,47.7-9.46,17.93-6.72,38.26-2.61,53.2a99.6,99.6,0,0,1-15.68-43.14c-1.48-13.14-4.16-36.92,9.52-51.39,16.41-17.36,40.58-4.62,51.84-20.76,6.39-9.16.65-16.16-.83-47.41-1.49-31.53-2.23-47.29,6.3-60.74,15.22-24,42.6-14.22,52-35,9.71-21.59-14.95-42.67-2.12-64.54C620.58,165.81,629.12,157.8,636.08,159.41Z"/><path class="cls-6" d="M607,504.92c24.1-4.4,30.06-56.16,30.82-63.52,1.89-18.42,4.24-41.26-9.08-60.59-19.27-27.93-52.06-20.65-59.89-43.84-4.81-14.25,7-18.63,7.59-45.88.16-7.82.74-36.06-19-58.88-14.08-16.28-32-22.27-41.44-24.59a91.24,91.24,0,0,1-6.59-34c.14-23.14,9.6-32.07,4.69-44.34-5.63-14.06-25.68-21.41-40.94-21.26-40.65.38-62.93,54-64.45,57.82-3.94,9.86-16.43,41.09-2.14,63.82,11.29,18,30.48,16.58,33.41,31.34s-15.32,20.47-19.64,43c-3.68,19.2,4.42,42.09,18.76,55,24,21.54,53.28,4.34,66.1,22.18,14.93,20.77-15.19,57.46-1.87,69.84,12.65,11.75,45.71-15.8,61.82-2.08,11.64,9.92.85,29.83,16.55,45.77C582.59,495.56,594.38,507.21,607,504.92Z"/><path class="cls-5" d="M480.35,120.19c-15.44,3.56-22.59,50.08-14.43,89.9,5.62,27.43,13.63,27.94,34.22,74.36,27.89,62.92,17.52,71.8,37.8,93.78,27.84,30.17,56.38,23.24,71.7,52.26C620,450.13,617,472.4,612.5,488.76a109.16,109.16,0,0,0,17.18-47.25c1.62-14.4,4.55-40.45-10.43-56.3-18-19-44.46-5.06-56.79-22.74-7-10-.71-17.7.9-51.94,1.64-34.53,2.45-51.8-6.9-66.54-16.67-26.28-46.66-15.57-56.92-38.37-10.63-23.64,16.38-46.74,2.33-70.7C497.34,127.2,488,118.43,480.35,120.19Z"/><path class="cls-7" d="M510.2,513.36c-13.16-2.26-20.44-34.7-17.62-59.86,1.09-9.73,2.18-19.41,9.26-28.23,11.95-14.89,25.77-8.36,36.28-20.37,15.53-17.73-3.79-44.3,11.15-58.71,11-10.61,24.93.41,38-11.08,15.22-13.33,6-36.46,19-42.35,7.61-3.42,12.74,3.49,33.33,2,8.06-.56,12.08-.85,15.77-3.07,12.92-7.79,6.67-25.41,17-36.2,11.38-11.89,36-8.37,50.68-1.81,26.27,11.76,38.09,41.21,38.49,64.64.09,5,.13,37.7-23.3,55-17,12.59-40,12.21-43.66,12.15-14.48-.24-17.37-4.44-22.51-1.4-14.86,8.78,5.87,45.95-13.11,69.67-7.75,9.68-20.95,15.66-32.66,16.19-18.93.87-27.08-12.81-37.14-8.11-13,6.07-5.14,31.66-19.41,39.2-10.1,5.34-17.85-5.46-34.87-1C519.86,504.09,518,514.7,510.2,513.36Z"/><path class="cls-5" d="M510.94,489.63c6,1.48,9.2-14.83,29.7-36.24C563,430,575.06,432.9,595.89,411.86c23.79-24,12.81-32.54,32.74-51.14,27-25.2,50-12.16,82.47-41.66,9.74-8.86,22.72-21,20.6-35.86C729.87,270.3,716.94,257,702.28,257c-.62,0-12.95.17-20.82,9.65-9.65,11.63-1.35,23.72-10.3,32.53-4.69,4.62-12,5.16-26.62,6.23-21,1.54-24.54-2.91-30.29.93-13,8.69,0,34.67-13.21,45.44-11.33,9.25-27.65-4.4-37.58,4.46-12,10.7,6.68,35.13-5.67,53-10.63,15.38-30.52,6-44.85,22.09C496,450.32,502.28,487.48,510.94,489.63Z"/><path class="cls-8" d="M587.1,499.86c10,.7,11.35-17.67,28.81-23.18,19.31-6.08,31.57,12,45,5.1,15.12-7.77,6.61-34.19,23.58-44.11,11.6-6.77,19.68,3.16,34.26-3.05,15.21-6.48,30.05-27.34,24.21-47.8-4.87-17.07-22.43-27.89-36.56-28-11.56-.08-14.85,7.05-25,4.95-12.6-2.62-12.3-14.69-25.5-20.12s-31.09-.73-41,10c-8.22,8.92-9.06,20.07-9.79,29.8-2,26.12,10,36.18,3.59,46.22-7.94,12.52-29.7,1.91-39.62,14.32C556.75,459.54,572.72,498.85,587.1,499.86Z"/><path class="cls-5" d="M582.25,480.64c3.65.73,4.73-11.17,16.23-21.11,13.18-11.39,23.11-5.55,37.86-14.55,18.28-11.15,11.33-25.17,27.6-36.49,22.81-15.85,51.15,1.5,58.81-11.44,4.47-7.56-.55-21.35-8.62-25.85-8.62-4.8-14.72,4.31-29.5,2.15-13.85-2-14.63-10.9-31.72-15.37-8.33-2.17-19.27-5-26.26.33-13.7,10.5-6.26,48-4,59.42,2.08,10.52,4,14.61,1.28,18.9-7.17,11.22-31-.36-42,11.76C572.74,458.53,577.52,479.7,582.25,480.64Z"/><path class="cls-9" d="M765.19,502l-489.72-4.18v12.36c0,3.35,2.13,6.2,5,6.71L419,541.24a19.72,19.72,0,0,0,5,.23l335.92-27.73c3-.25,5.33-3.11,5.33-6.56Z"/><path class="cls-9" d="M587.47,482.24,280.53,504.83a9.31,9.31,0,0,1-10-9.6V266.67a10.15,10.15,0,0,1,10-10.33H587.47c4.52,0,8.18,4.18,8.18,9.33V472.29C595.65,477.45,592,481.9,587.47,482.24Z"/><path class="cls-10" d="M592.36,482.24,285.43,504.83a9.3,9.3,0,0,1-10-9.6V266.67a10.15,10.15,0,0,1,10-10.33H592.36c4.53,0,8.19,4.18,8.19,9.33V472.29C600.55,477.45,596.89,481.9,592.36,482.24Z"/><path class="cls-11" d="M582.8,467.67,296.92,487.29a7.62,7.62,0,0,1-8.1-7.87V279.31a8.32,8.32,0,0,1,8.1-8.47l285.88-1.23c3.73,0,6.75,3.41,6.75,7.65V459.52C589.55,463.77,586.53,467.41,582.8,467.67Z"/><path class="cls-12" d="M449.73,262.59a3.54,3.54,0,1,1-3.53-3.85A3.7,3.7,0,0,1,449.73,262.59Z"/><path class="cls-13" d="M285.42,504.83l305.39-22.48,1.55-.11a8.26,8.26,0,0,0,5.41-2.74c-22-1.2-35.63-9-44.43-17.06-17.68-16.18-14.62-32.14-33.68-42.78-23.79-13.27-42.49,3.54-60.54-13.05-10.94-10.06-5.57-17.56-19-32.59-14.91-16.65-24.62-11-39.61-26C381.54,329,391,314.3,374.69,300.69c-19.8-16.5-41.15-1.22-60-17.05-8.13-6.83-12.59-16.75-14.92-27.3H285.43a10.15,10.15,0,0,0-10,10.33V495.23A9.3,9.3,0,0,0,285.42,504.83Z"/><path class="cls-14" d="M604.6,481,275.47,504.77,419,530a19.27,19.27,0,0,0,5,.23L765.19,502,609.83,481.14A26.15,26.15,0,0,0,604.6,481Z"/><polygon class="cls-9" points="323.49 504.97 597.5 484.88 682.31 496.18 410.66 517.66 323.49 504.97"/><path class="cls-12" d="M730.61,102.12V251.58c0,6.9-4.69,12.6-10.59,12.74l-49.13,1.2-151.54,3.71c-6.16.15-11.9-4.87-12.59-11.47-.05-.51-.73-1-.73-1.53V97c0-2.68,1.39-5.16,2.63-7.22,0-.06.4-.11.43-.16A11.64,11.64,0,0,1,519.21,84l23,.61L720,89.35C725.88,89.51,730.61,95.22,730.61,102.12Z"/><path class="cls-15" d="M519.37,265c-4.5.11-8.17-3.86-8.17-8.85v-159c0-5,3.67-8.94,8.17-8.83L720.1,93.35c4,.1,7.26,4,7.26,8.69V251.65c0,4.69-3.26,8.58-7.26,8.67Z"/><path class="cls-4" d="M720.1,89.35,519.37,84c-6.63-.18-12,5.63-12,13v9.53l223.4,4.53v-8.95C730.75,95.22,726,89.51,720.1,89.35Z"/><path class="cls-12" d="M528.74,95.85a3.83,3.83,0,0,1-3.91,3.87,4,4,0,0,1-3.91-4,3.83,3.83,0,0,1,3.91-3.88A4.06,4.06,0,0,1,528.74,95.85Z"/><path class="cls-12" d="M542.39,96.17a3.82,3.82,0,0,1-3.88,3.86,4,4,0,0,1-3.88-4,3.8,3.8,0,0,1,3.88-3.86A4,4,0,0,1,542.39,96.17Z"/><path class="cls-12" d="M555.93,96.48a3.79,3.79,0,0,1-3.84,3.85,4,4,0,0,1-3.86-4,3.79,3.79,0,0,1,3.86-3.84A4,4,0,0,1,555.93,96.48Z"/><polygon class="cls-4" points="718.32 251.9 521.37 256 521.37 130.73 718.32 133.43 718.32 251.9"/><g class="cls-16"><polygon class="cls-12" points="626.67 119.58 521.37 117.76 521.37 124.53 626.67 126.15 626.67 119.58"/><polygon class="cls-12" points="706.94 120.96 706.94 127.38 718.32 127.56 718.32 121.16 706.94 120.96"/></g><g class="cls-17"><path class="cls-12" d="M672.17,265.52l-151.55,3.71A12.81,12.81,0,0,1,508,257.76c0-.15-.7-.29-.7-.44V96.91c0-2.65,1.39-5.1,2.59-7.15,0-.06.41-.11.45-.16a11.65,11.65,0,0,1,10.2-5.74l22.86.61s.08.11.1.17c.42,1.39.91,2.8,1.43,4.24a91.76,91.76,0,0,0,8.37,17.51c.22.37.45.72.68,1.07a74.86,74.86,0,0,0,8.48,11,71.09,71.09,0,0,0,7.34,6.8,77.25,77.25,0,0,0,9.07,6.25c22.26,13.21,47.25,14.93,63.82,41.4,14.21,22.69,4,34.59,17.78,69.3,1.49,3.77,3.1,7.38,4.8,10.83,1.44,2.94,3,5.77,4.53,8.49C670.56,262.88,671.36,264.22,672.17,265.52Z"/></g><g class="cls-18"><path class="cls-19" d="M592,250.69c-34.2-5.27-41.81-9.15-45.34-16.41-5.14-10.56-1.4-27.74,7.37-38.31,7.67-9.24,17.21-11,16.93-17.43-.23-5.26-6.76-6-11.57-15.89-1.4-2.91-4.13-8.54-2.94-15.29,1.73-9.88,10.59-15,11.3-15.35,9.23-5.09,14.47,1,21.38-3.58,8.63-5.71,4.72-18.06,12.79-21.46,5.86-2.46,13.33,1.79,15.28,2.89,6.47,3.68,5.79,7.28,11.25,9.58,6.39,2.69,9.44-1.35,16.84.42,6.09,1.45,10.5,6,14.08,10.46,8,10.1,4,16,10,28.37,8.33,17.38,20.85,15.45,23.07,29.3,1.16,7.24-1.82,10.52.47,21.61,1.54,7.48,3.48,8.81,3.82,13.22,1,12.65-13.3,23.91-16,25.9C663.62,261.41,639.78,258.05,592,250.69Z"/><path class="cls-20" d="M646.35,216.45C624,214.88,608.73,236.24,602.66,231c-5.76-5,10.48-22,5-41.78-5.45-19.45-26.92-23.64-25.22-34.63,1.93-12.44,30.63-15.3,30-24.43-.4-5.39-10.52-6.69-12.54-15.29a13.71,13.71,0,0,1,.21-6.78c-5.59,4.43-3,15.14-10.91,20.34C582.2,133,577,126.92,567.73,132c-.71.4-9.57,5.47-11.3,15.35-1.19,6.75,1.54,12.38,2.94,15.29,4.81,9.93,11.34,10.63,11.57,15.89.28,6.39-9.26,8.19-16.93,17.43-8.77,10.57-12.51,27.75-7.37,38.31,3.53,7.26,11.14,11.14,45.34,16.41,47.8,7.36,71.64,10.72,88.74-2,6.6-4.9,14.35-13.21,16-20.55a19.37,19.37,0,0,1-9.62,5.3C672.92,236.26,666.33,217.84,646.35,216.45Z"/><path class="cls-21" d="M553.84,296.82c-5.18-13-2-33.52-1.36-37.84,2.6-16.87,8.71-27.33,10.94-31,15.21-25.4,38.22-25.21,55.48-25.07,8.51.07,17.31-.12,28,3.84a73.73,73.73,0,0,1,15.61,8.34c21.27,15.52,38,66.35,20.91,85.86-10.93,12.47-22.17-3-71.24,5.27-19.86,3.36-40.88,8.86-53.4-2A18.5,18.5,0,0,1,553.84,296.82Z"/><path class="cls-22" d="M609.86,172.42s3.63,27.23-14.86,32.67a3,3,0,0,0-1.17,5l22.78,22.15a3.26,3.26,0,0,0,4.8-.24l20.42-23.78a3,3,0,0,0-1.12-4.73c-6.53-2.51-18.28-9.86-15.81-29.71Z"/><path class="cls-23" d="M598.52,157.21c0,.3,5,26.95,17.75,27,12,0,16.56-19.42,18-28.49.16-1.54.31-3.08.47-4.62a8.84,8.84,0,0,1-5.25.1c-.54-.16-4-1.19-5.32-4.2-1.44-3.37,1.21-6-.3-8.94a6.5,6.5,0,0,0-4-3c.89,1.39,2.63,4.48,1.65,7.26-.66,1.86-2.51,3.64-6.65,4.69C603.06,150,598.41,151.18,598.52,157.21Z"/><path class="cls-24" d="M601.66,160.42s-6.61-5.87-7.19-2.31c-1.21,7.41,4.45,11.55,7.52,9.35S601.66,160.42,601.66,160.42Z"/><path class="cls-25" d="M630.55,160.66s6.5-5.71,7.07-2.18c1.18,7.35-4.38,11.38-7.4,9.16S630.55,160.66,630.55,160.66Z"/></g><path class="cls-12" d="M597.09,240.77a7,7,0,0,1-6.79,7.13,6.83,6.83,0,0,1-6.8-7,7,7,0,0,1,6.8-7.14A6.84,6.84,0,0,1,597.09,240.77Z"/><path class="cls-12" d="M628.62,240.41a7,7,0,0,1-6.68,7.08,6.76,6.76,0,0,1-6.71-6.92,6.94,6.94,0,0,1,6.71-7.08A6.75,6.75,0,0,1,628.62,240.41Z"/><path class="cls-12" d="M659.68,240.06a6.88,6.88,0,0,1-6.58,7,6.69,6.69,0,0,1-6.61-6.88,6.87,6.87,0,0,1,6.61-7A6.68,6.68,0,0,1,659.68,240.06Z"/><path class="cls-12" d="M699.5,321.35V444.28c0,5.68-3.85,10.57-8.73,10.92l-40.54,2.89h-.05L526.09,467a8.55,8.55,0,0,1-2.38-.15l-.42-.09-.82-.25c-.26-.1-.52-.2-.79-.33a9.33,9.33,0,0,1-1.11-.63,5.67,5.67,0,0,1-.68-.5,7.07,7.07,0,0,1-.65-.56,10.34,10.34,0,0,1-3-6.39,12.53,12.53,0,0,1-.21-1.25V326.73l0-.41a12.39,12.39,0,0,1,1.73-5.16c0-.05.13-.09.16-.14a10.2,10.2,0,0,1,6.26-4.72c.3-.07.6-.13.92-.18a7.46,7.46,0,0,1,.95-.05l18.68-.5h0L585,314.39l105.72-3c.11,0,.21,0,.33,0h.39l.38,0C696.21,311.9,699.5,316.11,699.5,321.35Z"/><path class="cls-26" d="M526.09,463.53c-3.67.25-6.65-2.84-6.65-6.9V327.05c0-4.06,3-7.46,6.65-7.56l164.78-4.86c3.32-.1,6,3,6,6.82V444.5c0,3.86-2.69,7.19-6,7.42Z"/><path class="cls-4" d="M690.87,311.34,526.09,316c-5.4.15-9.78,5.12-9.78,11.11v7.77l183.39-6.2v-7.36C699.7,315.69,695.75,311.2,690.87,311.34Z"/><path class="cls-12" d="M533.71,325.25a3.34,3.34,0,0,1-3.18,3.34,3.09,3.09,0,0,1-3.18-3.14,3.33,3.33,0,0,1,3.18-3.33A3.09,3.09,0,0,1,533.71,325.25Z"/><path class="cls-12" d="M544.83,324.91a3.31,3.31,0,0,1-3.16,3.32,3.08,3.08,0,0,1-3.16-3.12,3.32,3.32,0,0,1,3.16-3.33A3.08,3.08,0,0,1,544.83,324.91Z"/><path class="cls-12" d="M555.88,324.56a3.29,3.29,0,0,1-3.14,3.31,3.06,3.06,0,0,1-3.14-3.11,3.3,3.3,0,0,1,3.14-3.31A3.06,3.06,0,0,1,555.88,324.56Z"/><polygon class="cls-4" points="689.39 445.06 527.71 456.11 527.71 354.01 689.39 347.66 689.39 445.06"/><g class="cls-16"><polygon class="cls-12" points="613.81 340.32 527.71 343.44 527.71 348.96 613.81 345.7 613.81 340.32"/><polygon class="cls-12" points="679.98 337.92 679.98 343.19 689.39 342.83 689.39 337.57 679.98 337.92"/></g><g class="cls-17"><path class="cls-12" d="M650.23,458.11,526.09,467a8.55,8.55,0,0,1-2.38-.15l-.42-.09-.82-.25c-.26-.1-.52-.2-.79-.33a9.33,9.33,0,0,1-1.11-.63,5.67,5.67,0,0,1-.68-.5,7.07,7.07,0,0,1-.65-.56,10.28,10.28,0,0,1-3.06-6.38c0-.12-.19-.25-.19-.36v-131l0-.41a12.65,12.65,0,0,1,1.7-5.16c0-.05.15-.09.18-.14a10,10,0,0,1,8.19-5.12l18.52-.53a.66.66,0,0,1,0,.14h0a22.23,22.23,0,0,1,1.22,3.39,69.77,69.77,0,0,0,6.86,13.92c.18.29.38.57.56.85a57,57,0,0,0,6.94,8.59,52.57,52.57,0,0,0,6,5.24,57.93,57.93,0,0,0,7.41,4.71h0A95.12,95.12,0,0,0,585,357.33c14.91,5.73,30.08,9.37,40.9,26,10.33,15.9,5,25.7,11.42,47,.67,2.22,1.46,4.58,2.43,7.08.25.65.51,1.32.78,2q1.84,4.55,3.95,8.69,1.8,3.54,3.74,6.79c.65,1.08,1.3,2.14,2,3.17Z"/></g><g class="cls-27"><path class="cls-28" d="M548.39,485c-5-13,2-35.3,6.46-45.46C567.69,410,591.06,407.84,610,406.08c18.46-1.72,36.13-3.37,49,17.53,8.34,13.58,16,38.85,10.89,52.91-5.37,14.82-20.35,4.68-56.43,7C573,486.14,554.6,501.14,548.39,485Z"/><path class="cls-29" d="M627.46,408.16c0,3.57-8.33,8.3-18.65,8.85s-18.82-3.3-18.82-6.9,8.44-2.42,18.82-3S627.46,404.6,627.46,408.16Z"/><path class="cls-30" d="M601.91,384.47c-2.86.13,3.73,20.71-6.66,24.12a1.22,1.22,0,0,0-.26,2.21c2.8,1.43,8,3.15,16.57,2.69a21.33,21.33,0,0,0,11.66-4.27,1.19,1.19,0,0,0-.12-2c-3.17-1.55-7.58-6.77-6.27-22.88Z"/><path class="cls-31" d="M593.21,359.76c0,.26.91,19.34,5.11,28.69,1.2,2.68,7.17,2.07,11,1.55,3.33-.44,8.56.58,10-1.89,5.9-9.91,4.9-33.72,4.9-33.72s-3-7.83-15.44-7.15S593.21,359.76,593.21,359.76Z"/><path class="cls-32" d="M596.14,369.9s-2.62-3.06-5.1-3.37-4.09,6.41-.71,10.6,7.28.42,7.28.42Z"/><path class="cls-33" d="M621.55,368.82s2.59-3.25,5-3.77,4,6,.7,10.45a4.7,4.7,0,0,1-7.17,1.05Z"/><path class="cls-34" d="M594.09,369.75c.33.62.71,1.19,1,1.11,1.06-.33-3-10.91.74-14.82,2-2,4.14-.33,12.08-1s10-2.76,12.41-1.33c2.18,1.3,4.14,5.18,2.52,16.95l1.35-.38a12.76,12.76,0,0,1,.81-7.81,9.18,9.18,0,0,0,1.48-4.68c-.05-1.28-.46-1.32-.52-2.37-.2-3.08,3.16-4,3.32-7.08.12-2.35-1.81-2.81-1.45-5.27.3-2.1,1.8-2.54,1.56-4s-2.27-2.75-3.69-3.12-2,.12-2.82-.47c-1.37-.94-.71-2.72-1.7-3.34-1.77-1.11-5.29,3.66-7.57,2.58-1.38-.65-.85-2.76-2.08-3.23-2.36-.9-6.55,6.15-8.23,5.29-.81-.41,0-2.12-1.16-3.33-1.33-1.41-4.53-1.3-6,.29s-.21,3.17-1.65,5.05c-1.3,1.68-2.79,1.06-4.26,2.43-2.49,2.32-1.62,7.35-1.31,9.14,1.06,6.17,4.37,7.3,3.63,11.56a10.06,10.06,0,0,0-.32,4.07A8,8,0,0,0,594.09,369.75Z"/><g class="cls-35"><path class="cls-36" d="M624.41,355.16c-.28-3,2-4.51,1.58-6.66a4.87,4.87,0,0,0-3.94-3.48c-3.77-.57-6.21,5.32-10,4.83-2.91-.37-2.59-4.05-5.87-5.41-5.23-2.15-10.72,5.2-14.21,3.35-1-.56-2.11-2.05-2.19-6.21-2,2.47-1.21,7-.92,8.73,1.06,6.17,4.37,7.3,3.63,11.56a10.06,10.06,0,0,0-.32,4.07,8,8,0,0,0,1.89,3.81c.33.62.71,1.19,1,1.11,1.06-.33-3-10.91.74-14.82,2-2,4.14-.33,12.08-1s10-2.76,12.41-1.33c2.18,1.3,4.14,5.18,2.52,16.95l1.35-.38a12.76,12.76,0,0,1,.81-7.81c.23-.47.53-1,.81-1.6a14.07,14.07,0,0,0-.57-3.26A12.61,12.61,0,0,1,624.41,355.16Z"/></g></g><path class="cls-12" d="M588.78,438.23a6.1,6.1,0,0,1-5.56,6.1,5.29,5.29,0,0,1-5.58-5.44,6.09,6.09,0,0,1,5.58-6.1A5.29,5.29,0,0,1,588.78,438.23Z"/><path class="cls-12" d="M614.66,436.71a6,6,0,0,1-5.49,6.05,5.24,5.24,0,0,1-5.51-5.41,6,6,0,0,1,5.51-6.05A5.23,5.23,0,0,1,614.66,436.71Z"/><path class="cls-12" d="M640.22,435.2a6,6,0,0,1-5.43,6,5.19,5.19,0,0,1-5.43-5.38,6,6,0,0,1,5.43-6A5.2,5.2,0,0,1,640.22,435.2Z"/><path class="cls-37" d="M585,314.35v58.4c0,8.29-6,15.32-13.33,15.7l-44,2.27-8.27.43-3.45.18v-64.6l0-.41a12.65,12.65,0,0,1,1.7-5.16c0-.05.15-.09.18-.14a10,10,0,0,1,8.19-5.12l18.59-.53a.78.78,0,0,0,.05.14Z"/><path class="cls-4" d="M578.29,186.8c0-7.25-4.59-13.32-10.66-14.76l-.67-.13a12.48,12.48,0,0,0-2-.19L437.59,171,312,170.24l-.79,0a14.71,14.71,0,0,0-8.87,3.55l-.13.11c-.35.31-.69.63-1,1l0,0c-.19.2-.38.41-.56.62a16.53,16.53,0,0,0-3.93,10.78v11.6h0V379.85a16.43,16.43,0,0,0,.49,4,14.77,14.77,0,0,0,.72,2.22,14.34,14.34,0,0,0,14.1,9.14l192.27-10h0L565,382.12c7.36-.38,13.34-7.41,13.34-15.69V197.56h0Z"/><path class="cls-12" d="M578.82,186.71V366.53c0,8.29-6,15.32-13.34,15.69l-61.61,3.19L312,395.35a15.11,15.11,0,0,1-15.68-13.51c-.07-.61-.54-195.62-.54-195.62a17,17,0,0,1,3-8.86c0-.07.3-.14.35-.21a15.22,15.22,0,0,1,12.81-7l29.24.18,224.34,1.31C572.83,171.65,578.82,178.41,578.82,186.71Z"/><path class="cls-38" d="M312,390.2c-5.75.29-10.44-4.41-10.44-10.48V186.22A10.69,10.69,0,0,1,312,175.27l253.48,1.15c5,0,9.08,4.63,9.08,10.27v180c0,5.64-4.07,10.43-9.08,10.69Z"/><path class="cls-4" d="M565.47,171.61,312,170.13c-8.46,0-15.35,7.15-15.35,16.08v11.61l282.15-.35V186.7C578.79,178.41,572.84,171.65,565.47,171.61Z"/><path class="cls-12" d="M323.93,184.26a5,5,0,1,1-5-4.83A4.9,4.9,0,0,1,323.93,184.26Z"/><path class="cls-12" d="M341.31,184.3a4.94,4.94,0,1,1-4.93-4.81A4.85,4.85,0,0,1,341.31,184.3Z"/><path class="cls-12" d="M358.54,184.34a4.9,4.9,0,1,1-4.89-4.79A4.81,4.81,0,0,1,358.54,184.34Z"/><polygon class="cls-4" points="563.25 367.33 314.53 379.18 314.53 226.87 563.25 224.71 563.25 367.33"/><g class="cls-16"><polygon class="cls-12" points="448.14 210.47 314.53 211.09 314.53 219.32 448.14 218.42 448.14 210.47"/><polygon class="cls-12" points="549.02 210 549.02 217.74 563.25 217.64 563.25 209.94 549.02 210"/></g><g class="cls-17"><path class="cls-12" d="M503.86,385.41,312,395.34a15.14,15.14,0,0,1-15.73-13.5c0-.18-.49-195.71-.49-195.71a17.32,17.32,0,0,1,2.9-8.77c.05-.07.33-.14.37-.21A15.25,15.25,0,0,1,312,169.92l29.09.17c0,.07.07.14.09.21.55,1.68,1.16,3.38,1.81,5.11a107.15,107.15,0,0,0,10.64,21.06c.28.43.57.86.87,1.28a89,89,0,0,0,10.78,13.11,85.13,85.13,0,0,0,9.32,8,95.2,95.2,0,0,0,11.51,7.34c28.19,15.37,59.77,16.75,80.68,48.27,17.89,27,5.08,41.68,22.37,83.15q2.82,6.75,6,12.9,2.73,5.26,5.7,10.1Q502.33,383.08,503.86,385.41Z"/></g><path class="cls-12" d="M412.06,352a10.63,10.63,0,0,1-9.91,10.69,9.64,9.64,0,0,1-10-9.89,10.63,10.63,0,0,1,10-10.69A9.64,9.64,0,0,1,412.06,352Z"/><path class="cls-12" d="M451.88,350.38a10.46,10.46,0,0,1-9.7,10.57,9.48,9.48,0,0,1-9.74-9.78,10.45,10.45,0,0,1,9.74-10.57A9.49,9.49,0,0,1,451.88,350.38Z"/><path class="cls-12" d="M490.83,348.81c0,5.54-4.24,10.22-9.49,10.45s-9.53-4.11-9.53-9.69,4.28-10.25,9.53-10.45S490.83,343.26,490.83,348.81Z"/><g class="cls-39"><path class="cls-40" d="M444.94,385.64c-67.33,3.52-91.43,13.54-102.44-.69-10.18-13.16-1.74-62.26,10.35-76.26,19-22,49.13-23.67,89.69-25.65,37.46-1.82,60.22-2.93,78,12.73,16.51,14.53,27,65.6,16.77,80.34C527.81,389.86,507.31,382.37,444.94,385.64Z"/><path class="cls-41" d="M420.25,283.44l-7.86,2.17a3,3,0,0,0-1.74,4.42c5.36,8.2,19.5,28.67,28.31,30.86,9.06,2.25,25.9-24.41,31.47-33.74a2.84,2.84,0,0,0-1.57-4.2l-5.63-1.69a37,37,0,0,0-14.36-1.36l-21.28,2.16A43.76,43.76,0,0,0,420.25,283.44Z"/><path class="cls-42" d="M426.07,253s4.3,30.81-1.65,33.89l16.89,18,17-22.1s-6.4-4.71-4.72-30.16Z"/><path class="cls-43" d="M416.06,208.77c-.62.83-8.62,40,18.95,43.68,27.22,3.67,28.41-24.87,28.07-37S450.33,199,443.19,198.15,418.24,205.83,416.06,208.77Z"/><path class="cls-44" d="M414.45,231.57s-1.38-6.37-6.13-2.35,2.8,14.53,9,14Z"/><path class="cls-45" d="M462.24,226.76c-.77.54-3,15.38-3,15.38s3.91.42,6.73-4.93S470.14,221.32,462.24,226.76Z"/><path class="cls-9" d="M472.85,198.44c-2.84-4.74-10-2.49-12.12-7.08-1.77-3.86,2.38-7.48.16-10.82-1.87-2.79-6.43-2.74-7.24-2.73-6.19.07-7.6,5-12,4.86-5.41-.15-5.62-7.56-12.8-10.72-7-3.08-17.24-.65-21.4,5-3.24,4.44-.49,7.71-4.73,13.42-2.93,3.93-5.52,4.1-7,8-1.37,3.62-.44,7.06.28,9.62,1.74,6.13,5,8.82,9.84,15.31a104,104,0,0,1,8.24,12.86,144.05,144.05,0,0,1,4.83,15.36c1.55,6.06,1.46,7.29,2.9,9.24,5,6.7,16.29,5.85,21,5.5,5.42-.41,12.16-.91,15.53-5.68,1.83-2.57,1.6-4.87,2-11a154.23,154.23,0,0,1,2.34-18,55.41,55.41,0,0,1,2.2-7.65c2-5.27,4-6.12,6.19-11.57C472.88,207.93,475.16,202.31,472.85,198.44Zm-22.41,41.24c-3.34.94-5.61.15-10.15-.06-9.13-.43-12,3.88-16.36,2-1.8-.77-6-2.92-6.88-7.14a34,34,0,0,1-.28-10.81c.72-5.29,1.55-11.4,5.8-14.11,6.15-3.93,14,2.76,19.58-1.61a10.12,10.12,0,0,0,3.39-6.12c1.24.43,11.08,4,14.69,14.52a23.9,23.9,0,0,1-.13,15.43C458.07,234.93,455,238.41,450.44,239.68Z"/><path class="cls-46" d="M431.55,246.31a22.45,22.45,0,0,0,14.74-.6c.61-.24,1.14.43.62.8-2.11,1.53-5.2,3.17-8.56,3a17.68,17.68,0,0,1-7.32-2.3C430.46,246.85,430.91,246.12,431.55,246.31Z"/></g><path class="cls-12" d="M410.66,352a9,9,0,0,1-8.59,8.86,8.21,8.21,0,0,1-8.63-8.23,9,9,0,0,1,8.63-8.87A8.22,8.22,0,0,1,410.66,352Z"/><path class="cls-12" d="M450.51,350.49a8.85,8.85,0,0,1-8.44,8.78,8.1,8.1,0,0,1-8.47-8.16,8.84,8.84,0,0,1,8.47-8.78A8.1,8.1,0,0,1,450.51,350.49Z"/><path class="cls-12" d="M489.63,349.07a8.72,8.72,0,0,1-8.28,8.69,8,8,0,0,1-8.32-8.09,8.72,8.72,0,0,1,8.32-8.69A8,8,0,0,1,489.63,349.07Z"/><path class="cls-47" d="M379.24,192.09a36.77,36.77,0,0,0,8.45-23c0-24.53-26.11-44.42-58.33-44.42S271,144.52,271,169.05s26.12,44.41,58.34,44.41a71.48,71.48,0,0,0,32.6-7.58c6.15,1.05,15.7,2.82,20.74,3.75a1.94,1.94,0,0,0,2.17-2.58Z"/><g class="cls-35"><path class="cls-48" d="M361.28,178.45c-13.08-5.5-27.46,6.1-36.46-2s.73-24.3-7.95-35.8c-4.14-5.48-11.1-8.07-19.05-9-16.12,7.9-26.8,21.69-26.8,37.37,0,24.53,26.12,44.41,58.34,44.41a71.48,71.48,0,0,0,32.6-7.58c4.85.83,11.82,2.1,17,3.06C375.14,189.06,368.09,181.31,361.28,178.45Z"/></g><path class="cls-12" d="M368,152.81a2.23,2.23,0,0,1-2.23,2.24H294.89a2.24,2.24,0,0,1-2.24-2.24h0a2.23,2.23,0,0,1,2.24-2.23h70.92a2.23,2.23,0,0,1,2.23,2.23Z"/><path class="cls-12" d="M368,166.25a2.23,2.23,0,0,1-2.23,2.24H294.89a2.24,2.24,0,0,1-2.24-2.24h0a2.24,2.24,0,0,1,2.24-2.24h70.92a2.23,2.23,0,0,1,2.23,2.24Z"/><path class="cls-12" d="M334.45,179.69a2.24,2.24,0,0,1-2.24,2.24H294.89a2.24,2.24,0,0,1-2.24-2.24h0a2.24,2.24,0,0,1,2.24-2.24h37.32a2.24,2.24,0,0,1,2.24,2.24Z"/></g></g></svg>