<svg id="Capa_1" data-name="Capa 1" xmlns="http://www.w3.org/2000/svg" viewBox="0 0 245.16 96.84"><defs><style>.cls-1{fill:#f34f51;}</style></defs><path class="cls-1" d="M16.4,114.84q.6-1.8,3.54-8.22t7.92-17.16L39.68,64Q46.52,49.2,54.92,30.72a11.33,11.33,0,0,0,.78-2,7.27,7.27,0,0,0,.3-1.92,2.59,2.59,0,0,0-.72-1.92,3.94,3.94,0,0,0-2.76-.72,11.36,11.36,0,0,0-8.22,3.06,18.39,18.39,0,0,0-4.68,7.5,27.25,27.25,0,0,0-1.5,8.76q0,1.08.12,2.52t.36,3.24a6.66,6.66,0,0,1-4.74-1.74A11.12,11.12,0,0,1,31,43.14a13.26,13.26,0,0,1,1.26-12.3,26.24,26.24,0,0,1,5.82-6.54,28.89,28.89,0,0,1,8-4.62A24.16,24.16,0,0,1,54.8,18a11.83,11.83,0,0,1,7.56,2.46q3.12,2.46,4.8,8.88t1.68,18.42q0,7.8-.54,15.78T67.16,78.48q-.6,7-.6,11.88Q69,83.28,72.5,75.3t7.62-15.84q4.08-7.86,8-14.82T95.3,32.46q3.18-5.22,4.86-7.74a23.86,23.86,0,0,1,3-4,4.86,4.86,0,0,1,3.6-1.32A17.55,17.55,0,0,1,112,20.76,52.59,52.59,0,0,0,109.52,28q-1.44,5-3.12,11.58-1.8,7.2-3.6,15.78T99.56,72.72q-1.44,8.76-2.34,16.62a123.55,123.55,0,0,0-.9,13.86,31.48,31.48,0,0,0,.3,4.92,15.94,15.94,0,0,0,.84,3.18q.54,1.38,1.26,3.54-5.16,0-7.86-1.56a7.72,7.72,0,0,1-3.6-5,36.81,36.81,0,0,1-.9-9.06,137.59,137.59,0,0,1,3.06-28q3.06-14.7,7.14-30.3a121.3,121.3,0,0,0-7,11.4q-3.6,6.6-7.08,13.92T75.92,80.7Q72.8,87.84,70.4,93.9T66.68,104l-1.5.48a3.76,3.76,0,0,1-1,.12q-4.2,0-5.34-5.1a67.17,67.17,0,0,1-1.14-14q0-4.68.12-10t.36-10.92q.24-5.58.36-11.1T58.64,43q0-1.8-.06-3.6t-.06-3.48Q49.4,57.12,43.1,72.18T32.36,96.66q-4.44,9.42-8.16,13.8T16.4,114.84Z" transform="translate(-16.4 -18)"/><path class="cls-1" d="M165.92,110.28q-7.32,0-11.28-3.9A15.15,15.15,0,0,1,150.08,97a38.49,38.49,0,0,1-11.76,9.36A29.1,29.1,0,0,1,125,109.68q-7.8,0-11.94-4.14a13.93,13.93,0,0,1-4.14-10.26,26.78,26.78,0,0,1,2.7-11.16A46.09,46.09,0,0,1,118.88,73,42,42,0,0,1,129,64.5a21.74,21.74,0,0,1,11.28-3.3,11.44,11.44,0,0,1,5.82,1.56q2.7,1.56,2.7,6.36a14.61,14.61,0,0,1-2.64,8.34,25.92,25.92,0,0,1-7.08,6.9,43.93,43.93,0,0,1-9.78,4.92,47,47,0,0,1-10.74,2.52,7.87,7.87,0,0,0-.18,1.26q-.06.78-.06,1.74a14.14,14.14,0,0,0,.72,4.38,7.83,7.83,0,0,0,2.7,3.78q2,1.56,5.94,1.56a21.78,21.78,0,0,0,12.42-4.14A43.55,43.55,0,0,0,150.68,90a34.17,34.17,0,0,1,3.84-9.72,40.8,40.8,0,0,1,6.78-8.76,35,35,0,0,1,8.76-6.36,21.17,21.17,0,0,1,9.66-2.4,11.66,11.66,0,0,1,5.94,1.56q2.7,1.56,2.7,6.48a15.09,15.09,0,0,1-4.14,10.44,30.45,30.45,0,0,1-10.68,7.38,48.87,48.87,0,0,1-13.86,3.66,11.94,11.94,0,0,0-.18,1.26q-.06.66-.06,1.62a15.93,15.93,0,0,0,.66,4.44,7.9,7.9,0,0,0,2.58,3.9q1.92,1.62,5.76,1.62a20.7,20.7,0,0,0,10.38-3,41.35,41.35,0,0,0,9.72-7.86,46.64,46.64,0,0,0,7.38-10.5l2.16,1.68a48,48,0,0,1-8.34,12.78A41.52,41.52,0,0,1,178.52,107,26.62,26.62,0,0,1,165.92,110.28ZM119.84,88A56.35,56.35,0,0,0,127,84.78a52,52,0,0,0,7.2-4.56,27.07,27.07,0,0,0,5.58-5.52,10.12,10.12,0,0,0,2.16-6.06,2.39,2.39,0,0,0-.42-1.5,2.15,2.15,0,0,0-1.74-.54,10.37,10.37,0,0,0-5.46,1.86,28.16,28.16,0,0,0-5.76,5,44.63,44.63,0,0,0-5.1,6.9A39.83,39.83,0,0,0,119.84,88ZM161,88q3.12-1.08,6.66-2.7a43.4,43.4,0,0,0,6.66-3.78,22.29,22.29,0,0,0,5.16-4.86,9.63,9.63,0,0,0,2-5.94,3,3,0,0,0-.48-2,2.36,2.36,0,0,0-1.8-.54,11.41,11.41,0,0,0-7,2.82,31.07,31.07,0,0,0-6.6,7.32A39.22,39.22,0,0,0,161,88Z" transform="translate(-16.4 -18)"/><path class="cls-1" d="M203.72,109.92a11.77,11.77,0,0,1-8.52-3.12Q192,103.68,192,97.32a51.44,51.44,0,0,1,1.86-12.24A151.32,151.32,0,0,1,198.56,70a16.87,16.87,0,0,0-2-.42,8.84,8.84,0,0,1-2.22-.66V65.16q1.92.24,3.18.36l2.58.24q2.52-6.36,5.46-12.3a120.55,120.55,0,0,1,5.88-10.62A44.54,44.54,0,0,1,217,35.46q2.64-2.7,4.68-2.7a3.51,3.51,0,0,1,2.28.9,3.17,3.17,0,0,1,1.08,2.58q0,2.4-2.46,6.84t-6.06,10.38q-3.6,5.94-7,12.66h3.72q5.28,0,9.54-.18t8.7-.66v4q-6.6.6-12.12,1t-10.56.48h-1.44a114,114,0,0,0-4.38,12.06A41.74,41.74,0,0,0,201.2,94.8q0,4.92,1.56,7a5.8,5.8,0,0,0,4.92,2q6,0,12.3-5.46a47.24,47.24,0,0,0,11-14.82l1.68,1.2a57.4,57.4,0,0,1-7.74,12.84,39.1,39.1,0,0,1-10,9.06A21.13,21.13,0,0,1,203.72,109.92Z" transform="translate(-16.4 -18)"/><path class="cls-1" d="M237,108q-5.28,0-7.92-3.12a11.31,11.31,0,0,1-2.64-7.56,32.42,32.42,0,0,1,1-7,68.29,68.29,0,0,1,2.7-8.82,64.16,64.16,0,0,1,4-8.7A29.08,29.08,0,0,1,239,66.18a7.67,7.67,0,0,1,5.28-2.58,4,4,0,0,1,2.52.84,3.14,3.14,0,0,1,1.08,2.64q0,1.56-1.86,4.68T241.7,79a67.34,67.34,0,0,0-4.32,8.46,21.34,21.34,0,0,0-1.86,8.34q0,3.84,1.38,5.1a5.77,5.77,0,0,0,4,1.26q4.08,0,8.88-4.08t10-14.28l1.8,1.92q-4.2,10.56-10.68,16.44T237,108Zm14.16-54.12A7.77,7.77,0,0,1,247,52.74a3.86,3.86,0,0,1-1.86-3.54q0-2.88,3.12-4.92a11.68,11.68,0,0,1,6.48-2,6.65,6.65,0,0,1,3.66,1,3.81,3.81,0,0,1,1.5,3.48q0,2.52-2.76,4.86A9.09,9.09,0,0,1,251.12,53.88Z" transform="translate(-16.4 -18)"/></svg>